<svg version="1.1" id="Layer_1" xmlns="http://www.w3.org/2000/svg" xmlns:xlink="http://www.w3.org/1999/xlink" x="0px" y="0px" width="513" viewBox="152.43902587890625 646.08203125 1663.8557739257812 460.5604248046875" enable-background="new 0 0 2000 2000" xml:space="preserve" height="142" style="">
<path fill="#FFFFFF" opacity="1.000000" stroke="none" d="&#10;M910.000000,2001.000000 &#10;&#9;C606.666687,2001.000000 303.833344,2001.000000 1.000000,2001.000000 &#10;&#9;C1.000000,1334.333374 1.000000,667.666687 1.000000,1.000000 &#10;&#9;C667.666687,1.000000 1334.333374,1.000000 2001.000000,1.000000 &#10;&#9;C2001.000000,667.666687 2001.000000,1334.333374 2001.000000,2001.000000 &#10;&#9;C1637.500000,2001.000000 1274.000000,2001.000000 910.000000,2001.000000 &#10;M1365.982544,970.939758 &#10;&#9;C1365.982544,970.939758 1365.937866,970.873535 1366.374756,970.372681 &#10;&#9;C1366.909302,968.916077 1367.443848,967.459473 1368.207153,965.767456 &#10;&#9;C1368.207153,965.767456 1368.183105,965.440063 1368.731689,964.968323 &#10;&#9;C1402.563843,884.885254 1436.395996,804.802185 1470.228149,724.719116 &#10;&#9;C1469.665039,724.344116 1469.101929,723.969055 1468.538818,723.594055 &#10;&#9;C1467.329956,725.082764 1465.691772,726.389832 1464.973877,728.086365 &#10;&#9;C1432.920166,803.829163 1400.953003,879.608582 1368.930908,955.364746 &#10;&#9;C1368.204712,957.082764 1366.966919,958.584412 1366.021851,960.079895 &#10;&#9;C1366.021851,960.079895 1365.913940,960.027344 1365.936523,959.446472 &#10;&#9;C1365.621948,958.974182 1365.307495,958.501892 1364.934204,957.286194 &#10;&#9;C1347.262573,915.521179 1329.596069,873.753967 1311.917847,831.991638 &#10;&#9;C1297.284302,797.422363 1282.658203,762.849792 1267.928833,728.321289 &#10;&#9;C1267.250977,726.732117 1265.628906,724.419739 1264.381714,724.377747 &#10;&#9;C1254.638306,724.050354 1244.879028,724.196655 1234.491333,724.196655 &#10;&#9;C1235.295776,726.392212 1235.787720,727.929443 1236.411987,729.410706 &#10;&#9;C1265.122437,797.532471 1293.848022,865.647888 1322.563232,933.767578 &#10;&#9;C1331.403442,954.738953 1340.196899,975.730103 1349.098633,996.675354 &#10;&#9;C1349.671753,998.023987 1350.993652,999.054443 1351.967285,1000.232910 &#10;&#9;C1353.076416,999.017883 1354.570679,997.979431 1355.223267,996.555298 &#10;&#9;C1357.292725,992.039368 1359.047729,987.379272 1361.349731,982.272339 &#10;&#9;C1362.182861,980.160767 1363.015991,978.049194 1363.973511,975.873840 &#10;&#9;C1363.973511,975.873840 1363.896362,975.757324 1364.302979,975.251709 &#10;&#9;C1364.838989,973.826355 1365.375122,972.401001 1365.982544,970.939758 &#10;M1654.093262,901.550903 &#10;&#9;C1654.336792,901.843811 1654.580200,902.136719 1654.905884,903.146912 &#10;&#9;C1667.926025,934.442505 1680.921753,965.748352 1694.049805,996.998596 &#10;&#9;C1694.616333,998.347351 1696.380249,1000.084045 1697.625488,1000.116028 &#10;&#9;C1707.573608,1000.371155 1717.531250,1000.258484 1728.096558,1000.258484 &#10;&#9;C1727.307007,998.381348 1726.755249,997.062561 1726.198120,995.746155 &#10;&#9;C1701.000000,936.215210 1675.801758,876.684387 1650.602661,817.153870 &#10;&#9;C1638.037598,787.469849 1625.482422,757.781555 1612.862671,728.120972 &#10;&#9;C1612.331909,726.873657 1611.189575,725.886658 1610.332275,724.778381 &#10;&#9;C1609.179199,725.775391 1607.648682,726.556030 1606.933350,727.804016 &#10;&#9;C1601.894531,736.594604 1597.023438,745.481323 1591.646606,754.796753 &#10;&#9;C1573.860596,791.220032 1555.408081,827.337219 1538.497681,864.162598 &#10;&#9;C1524.762329,894.073669 1513.002808,924.878845 1507.518555,957.633484 &#10;&#9;C1505.861816,967.528442 1504.351440,977.558716 1508.026611,987.248657 &#10;&#9;C1513.909912,1002.760620 1531.805542,1009.156494 1544.367554,994.309265 &#10;&#9;C1547.951050,990.073853 1550.543701,984.863342 1552.944580,979.793884 &#10;&#9;C1557.209961,970.788025 1560.786133,961.456970 1565.005859,952.427979 &#10;&#9;C1571.340210,938.874756 1579.598633,926.671875 1591.261841,917.026611 &#10;&#9;C1608.628540,902.664307 1629.163208,896.822815 1651.208008,894.968689 &#10;&#9;C1651.208008,894.968689 1651.472412,894.931641 1651.526611,895.320129 &#10;&#9;C1651.630127,895.573608 1651.802490,895.765137 1651.998169,895.945984 &#10;&#9;C1651.998169,895.945984 1652.062866,895.969299 1652.055176,896.650208 &#10;&#9;C1652.731445,898.041077 1653.407715,899.431946 1654.023438,900.909912 &#10;&#9;C1654.023438,900.909912 1654.117554,900.958557 1654.093262,901.550903 &#10;M871.464172,895.336182 &#10;&#9;C871.583252,895.593445 871.768555,895.787659 872.068298,896.671692 &#10;&#9;C885.565369,929.027466 899.218628,961.319763 912.400940,993.803284 &#10;&#9;C914.523804,999.034302 916.999146,1000.741943 922.484924,1000.398254 &#10;&#9;C930.856934,999.873657 939.285950,1000.260681 948.081909,1000.260681 &#10;&#9;C937.315918,974.830383 926.836853,950.220032 916.470703,925.562134 &#10;&#9;C896.008728,876.889221 875.502319,828.234436 855.248901,779.474670 &#10;&#9;C849.195312,764.900696 844.058289,749.948120 838.202332,735.288452 &#10;&#9;C836.559387,731.175476 833.852600,727.487549 831.633789,723.604614 &#10;&#9;C830.828552,723.594482 830.023315,723.584351 829.218079,723.574158 &#10;&#9;C823.507629,733.807068 817.797180,744.039978 811.625183,754.733704 &#10;&#9;C790.700623,792.918579 771.636353,832.005066 754.871948,872.197083 &#10;&#9;C742.450989,901.975769 730.510437,931.964478 726.675964,964.309387 &#10;&#9;C725.797180,971.722473 725.974976,979.863647 728.137695,986.911377 &#10;&#9;C732.935486,1002.545776 751.337158,1009.191406 764.158875,994.589233 &#10;&#9;C766.434814,991.997192 768.487366,989.038208 769.933289,985.919556 &#10;&#9;C774.819824,975.379761 779.244812,964.626221 784.111572,954.076843 &#10;&#9;C790.582581,940.050110 798.881958,927.276367 810.895935,917.265625 &#10;&#9;C828.324341,902.743347 848.979187,896.781494 871.155518,894.967957 &#10;&#9;C871.155518,894.967957 871.394165,894.934265 871.464172,895.336182 &#10;M520.078003,855.220215 &#10;&#9;C519.846375,854.978577 519.614807,854.737000 519.676941,853.869629 &#10;&#9;C532.613220,830.827942 548.631714,809.986267 565.645508,789.886597 &#10;&#9;C574.352600,779.600220 582.732727,768.878540 592.529358,759.709229 &#10;&#9;C608.430298,744.826538 625.696716,731.567627 647.958252,724.966919 &#10;&#9;C626.511963,724.966919 606.003540,724.966919 586.282837,724.966919 &#10;&#9;C587.504150,729.123169 589.587341,733.213257 589.750732,737.378662 &#10;&#9;C590.115662,746.683044 586.149902,755.094421 580.965942,762.363831 &#10;&#9;C569.866394,777.928406 558.127686,793.048340 546.356506,808.120544 &#10;&#9;C522.804688,838.277100 503.556030,870.710144 493.317200,907.882690 &#10;&#9;C490.166565,919.321228 487.895569,931.002075 485.221802,942.571960 &#10;&#9;C485.088379,942.571228 484.954956,942.570496 484.821533,942.569763 &#10;&#9;C484.821533,870.135620 484.821533,797.701416 484.821533,725.015381 &#10;&#9;C474.705322,725.015381 464.974884,725.015381 455.269165,725.015381 &#10;&#9;C455.269165,816.858765 455.269165,908.414368 455.269165,1000.020325 &#10;&#9;C465.171021,1000.020325 474.785004,1000.020325 484.557281,1000.020325 &#10;&#9;C484.652740,998.818481 484.731812,997.846558 484.806885,996.874329 &#10;&#9;C486.202423,978.796326 486.896729,960.629578 489.170410,942.662720 &#10;&#9;C491.999725,920.305298 498.474274,898.766968 507.789673,878.209167 &#10;&#9;C523.168640,844.269775 559.064514,845.739136 576.201233,859.164917 &#10;&#9;C585.475159,866.430664 589.529114,876.944519 591.889099,887.957825 &#10;&#9;C595.302307,903.886108 597.742554,920.022766 601.143799,935.953918 &#10;&#9;C604.517151,951.754700 610.170410,966.689880 622.079712,978.275574 &#10;&#9;C641.060913,996.740906 665.055725,999.823486 690.289490,999.520508 &#10;&#9;C689.691040,998.225220 688.794678,997.231384 687.703796,996.920837 &#10;&#9;C684.529053,996.016724 681.148132,995.730042 678.078125,994.584534 &#10;&#9;C668.469360,990.999329 661.089478,984.173157 656.348755,975.516174 &#10;&#9;C647.028870,958.497498 638.387390,941.077148 630.170105,923.493591 &#10;&#9;C622.641785,907.384216 615.957336,890.940430 605.716492,876.188171 &#10;&#9;C585.857605,847.580750 543.721436,838.746216 520.078003,855.220215 &#10;M1106.150024,739.516846 &#10;&#9;C1106.150024,735.602173 1106.150024,731.687561 1106.150024,727.632629 &#10;&#9;C1140.065552,727.450134 1172.664062,729.067505 1198.835693,754.672852 &#10;&#9;C1198.835693,743.871582 1198.835693,734.268433 1198.835693,724.487061 &#10;&#9;C1197.984619,724.364136 1197.354858,724.192200 1196.725586,724.193787 &#10;&#9;C1137.064697,724.342773 1077.403442,724.433105 1017.743347,724.735229 &#10;&#9;C1007.465271,724.787231 998.311035,728.500977 990.234680,735.063049 &#10;&#9;C984.118469,740.032532 981.477722,745.885803 983.838623,754.390076 &#10;&#9;C1009.748779,728.539124 1042.519043,727.664429 1075.984619,727.586060 &#10;&#9;C1075.984619,818.549683 1075.984619,909.167236 1075.984619,1000.024658 &#10;&#9;C1086.139282,1000.024658 1095.920410,1000.024658 1106.150513,1000.024658 &#10;&#9;C1106.150513,913.437744 1106.150513,826.974243 1106.150024,739.516846 &#10;M303.067322,885.500000 &#10;&#9;C303.067322,832.071899 303.067322,778.643799 303.067322,724.987671 &#10;&#9;C293.197388,724.987671 283.798431,724.987671 274.145203,724.987671 &#10;&#9;C274.145203,816.735352 274.145203,908.257568 274.145203,1000.007935 &#10;&#9;C283.782623,1000.007935 293.183228,1000.007935 303.067322,1000.007935 &#10;&#9;C303.067322,962.034912 303.067322,924.267456 303.067322,885.500000 &#10;M704.602661,1184.348511 &#10;&#9;C703.787109,1185.626587 702.318787,1186.878784 702.266907,1188.187012 &#10;&#9;C702.019165,1194.433838 702.155945,1200.695801 702.155945,1206.952393 &#10;&#9;C701.760803,1207.394653 701.365662,1207.836914 700.970520,1208.279053 &#10;&#9;C700.166626,1206.843140 699.591797,1205.201904 698.520081,1204.005981 &#10;&#9;C693.296448,1198.177612 688.053162,1192.356567 682.554810,1186.791748 &#10;&#9;C681.091125,1185.310425 678.700989,1184.744507 676.094421,1183.436279 &#10;&#9;C676.094421,1194.838013 676.094421,1204.767700 676.094421,1215.023560 &#10;&#9;C677.706970,1214.917725 679.096436,1214.826538 680.916809,1214.707031 &#10;&#9;C680.916809,1207.569580 680.916809,1200.774780 680.916809,1192.484497 &#10;&#9;C688.002563,1199.957642 693.912842,1206.430420 700.136963,1212.585815 &#10;&#9;C701.677612,1214.109375 704.236694,1214.603027 707.039185,1215.899292 &#10;&#9;C707.039185,1205.381592 707.089539,1196.398193 706.969849,1187.416992 &#10;&#9;C706.956177,1186.394043 705.988892,1185.383789 704.602661,1184.348511 &#10;M1472.152832,1212.720703 &#10;&#9;C1472.152832,1205.936523 1472.152832,1199.152222 1472.152832,1193.128784 &#10;&#9;C1467.526123,1192.636963 1463.475708,1192.152832 1459.414673,1191.787598 &#10;&#9;C1453.876953,1191.289307 1448.973511,1192.716919 1446.128174,1197.785767 &#10;&#9;C1443.773315,1201.980713 1443.946045,1206.484619 1446.867432,1210.500000 &#10;&#9;C1450.512573,1215.510254 1455.752930,1215.924683 1461.249023,1214.875244 &#10;&#9;C1463.240845,1214.494995 1465.109497,1213.468384 1467.178345,1212.682007 &#10;&#9;C1466.604492,1220.013550 1462.162598,1222.447388 1454.291138,1220.106079 &#10;&#9;C1452.010498,1219.427612 1449.314819,1217.613525 1449.211914,1222.188232 &#10;&#9;C1459.901855,1228.614502 1470.548096,1224.602905 1472.152832,1212.720703 &#10;M470.292511,1186.714600 &#10;&#9;C465.107849,1190.983765 459.923187,1195.252930 453.753052,1200.333618 &#10;&#9;C453.753052,1195.531372 453.584839,1191.943848 453.799347,1188.379395 &#10;&#9;C454.023438,1184.655151 452.636658,1183.551270 449.070312,1184.828613 &#10;&#9;C449.070312,1194.827881 449.070312,1204.743408 449.070312,1214.978882 &#10;&#9;C450.652740,1214.907471 452.047089,1214.844482 453.958282,1214.758301 &#10;&#9;C452.355347,1207.636963 455.091400,1203.002686 461.514832,1200.304077 &#10;&#9;C463.969025,1203.369141 466.448883,1206.471924 468.935028,1209.569458 &#10;&#9;C471.420746,1212.666626 473.343445,1216.868164 478.961609,1214.422974 &#10;&#9;C474.281830,1208.544312 469.674225,1202.756348 464.931702,1196.798828 &#10;&#9;C469.774017,1192.770752 474.342590,1188.970459 478.911133,1185.170166 &#10;&#9;C478.605316,1184.682617 478.299500,1184.195190 477.993683,1183.707642 &#10;&#9;C475.611145,1184.547607 473.228607,1185.387451 470.292511,1186.714600 &#10;M1155.620728,1215.336792 &#10;&#9;C1158.914795,1214.537476 1162.208862,1213.738037 1165.124878,1213.030518 &#10;&#9;C1166.581787,1213.813965 1168.164062,1214.664673 1170.421387,1215.878540 &#10;&#9;C1170.421387,1204.217407 1170.421387,1193.806641 1170.421387,1183.068359 &#10;&#9;C1168.961792,1183.068359 1167.585938,1183.068359 1165.828857,1183.068359 &#10;&#9;C1165.828857,1186.834717 1165.828857,1190.398315 1165.828857,1194.375854 &#10;&#9;C1159.082031,1191.058350 1152.706177,1190.056763 1146.959473,1195.073364 &#10;&#9;C1143.249878,1198.311401 1142.378052,1202.683838 1143.938599,1207.356201 &#10;&#9;C1145.666016,1212.528320 1149.539673,1214.922241 1155.620728,1215.336792 &#10;M1024.626953,1212.174438 &#10;&#9;C1028.881836,1207.154053 1029.613647,1201.673218 1026.636963,1197.121826 &#10;&#9;C1022.960632,1191.500610 1016.695862,1190.477295 1006.397522,1194.065430 &#10;&#9;C1006.397522,1190.329224 1006.397522,1186.749634 1006.397522,1182.954834 &#10;&#9;C1004.660522,1182.954834 1003.411560,1182.954834 1001.993652,1182.954834 &#10;&#9;C1001.993652,1193.615723 1001.993652,1204.065063 1001.993652,1214.866577 &#10;&#9;C1004.580750,1214.575684 1007.233643,1213.519287 1009.335022,1214.190186 &#10;&#9;C1014.624817,1215.879272 1019.430542,1215.855591 1024.626953,1212.174438 &#10;M509.629242,1188.760254 &#10;&#9;C508.133911,1187.285400 506.836273,1185.416626 505.050446,1184.520508 &#10;&#9;C504.287231,1184.137329 501.826141,1185.454102 501.295227,1186.556396 &#10;&#9;C496.846130,1195.795410 492.666504,1205.164062 488.399841,1214.506470 &#10;&#9;C491.655243,1215.807373 493.818207,1215.030151 494.667572,1211.745361 &#10;&#9;C495.535339,1208.389282 497.655823,1207.452881 500.930908,1207.796387 &#10;&#9;C503.560913,1208.072388 506.266510,1208.078125 508.895355,1207.797974 &#10;&#9;C512.059570,1207.460815 513.952881,1208.602905 514.792908,1211.623413 &#10;&#9;C515.741943,1215.036133 517.851196,1215.876099 521.287231,1214.430298 &#10;&#9;C517.464905,1206.011230 513.704407,1197.728394 509.629242,1188.760254 &#10;M627.726624,1213.029541 &#10;&#9;C623.797607,1204.443848 619.958557,1195.814575 615.844727,1187.318359 &#10;&#9;C615.210571,1186.008789 613.394836,1184.709351 611.975159,1184.517578 &#10;&#9;C610.812988,1184.360596 608.782288,1185.550537 608.241882,1186.674805 &#10;&#9;C603.815125,1195.883667 599.647644,1205.217163 595.401428,1214.512939 &#10;&#9;C595.747742,1214.931396 596.094055,1215.349854 596.440369,1215.768188 &#10;&#9;C598.054077,1214.690063 600.563293,1213.943604 601.109314,1212.469849 &#10;&#9;C602.596497,1208.456543 605.118835,1207.334717 609.031616,1207.805542 &#10;&#9;C610.997131,1208.042236 613.040161,1208.053467 615.002686,1207.806152 &#10;&#9;C618.626892,1207.349487 620.797241,1208.471558 622.107361,1212.145386 &#10;&#9;C623.417419,1215.819336 624.381897,1215.855835 627.726624,1213.029541 &#10;M1416.347412,1192.741089 &#10;&#9;C1411.228027,1194.567261 1408.432251,1198.309692 1408.298218,1203.623047 &#10;&#9;C1408.183716,1208.156128 1410.526733,1211.708130 1414.665894,1213.565430 &#10;&#9;C1421.323975,1216.552856 1427.799927,1215.886963 1433.937378,1211.160889 &#10;&#9;C1432.401855,1210.204224 1430.678711,1209.660034 1429.308350,1210.134766 &#10;&#9;C1422.183594,1212.602173 1416.076538,1210.898560 1413.562988,1205.050049 &#10;&#9;C1420.801270,1205.050049 1427.857910,1205.050049 1434.856812,1205.050049 &#10;&#9;C1435.445557,1198.593018 1433.831177,1194.681030 1428.707397,1193.109741 &#10;&#9;C1425.090698,1192.000488 1420.953003,1192.589722 1416.347412,1192.741089 &#10;M1071.703125,1193.046875 &#10;&#9;C1065.216431,1197.558472 1063.408936,1203.830811 1066.902344,1209.706421 &#10;&#9;C1070.653931,1216.016357 1077.967896,1216.926636 1086.284424,1212.941040 &#10;&#9;C1088.766113,1214.009277 1090.331055,1214.682983 1092.424683,1215.584229 &#10;&#9;C1092.424683,1207.100586 1092.424683,1199.811157 1092.424683,1191.597534 &#10;&#9;C1090.320435,1192.301758 1088.665649,1192.855591 1086.188965,1193.684448 &#10;&#9;C1082.494385,1191.458008 1077.572388,1190.822998 1071.703125,1193.046875 &#10;M1331.666138,1206.639648 &#10;&#9;C1335.258545,1215.849487 1343.120850,1217.889404 1352.563110,1212.691650 &#10;&#9;C1354.552856,1213.787720 1356.139771,1214.661743 1358.363525,1215.886719 &#10;&#9;C1358.363525,1207.217163 1358.363525,1199.786377 1358.363525,1191.328491 &#10;&#9;C1356.145142,1192.310303 1354.523438,1193.028198 1352.568970,1193.893311 &#10;&#9;C1346.310059,1190.879517 1340.641724,1190.805542 1336.144775,1194.064575 &#10;&#9;C1332.113770,1196.985962 1330.628784,1200.986938 1331.666138,1206.639648 &#10;M940.210876,1204.346802 &#10;&#9;C942.646423,1215.325073 951.044067,1218.316772 961.503967,1212.780884 &#10;&#9;C963.633362,1213.864014 965.212219,1214.666992 967.317505,1215.737915 &#10;&#9;C967.317505,1207.146851 967.317505,1199.739990 967.317505,1191.257080 &#10;&#9;C964.901001,1192.380005 963.172363,1193.861572 961.504700,1193.795776 &#10;&#9;C959.133057,1193.702271 956.845276,1192.013672 954.453247,1191.810059 &#10;&#9;C946.261108,1191.112671 941.585388,1195.098877 940.210876,1204.346802 &#10;M1491.002197,1214.645874 &#10;&#9;C1495.918823,1214.318970 1500.835327,1213.992188 1505.837524,1213.659668 &#10;&#9;C1506.809448,1214.053101 1508.374512,1214.686646 1510.408447,1215.510010 &#10;&#9;C1510.408447,1207.047852 1510.408447,1199.754395 1510.408447,1191.495483 &#10;&#9;C1508.269653,1192.298706 1506.634766,1192.912598 1504.402100,1193.751099 &#10;&#9;C1496.086182,1189.942627 1488.065308,1191.451538 1484.590088,1198.021484 &#10;&#9;C1481.397827,1204.056641 1483.690674,1210.558472 1491.002197,1214.645874 &#10;M572.205994,1202.123901 &#10;&#9;C570.115356,1197.251831 567.893921,1192.430542 565.981018,1187.489624 &#10;&#9;C564.750000,1184.310059 562.824585,1183.643188 559.411865,1184.979736 &#10;&#9;C563.670837,1194.620972 567.721375,1204.204834 572.314941,1213.520996 &#10;&#9;C572.753967,1214.411499 578.161865,1214.397095 578.591980,1213.509155 &#10;&#9;C583.114136,1204.173462 587.092224,1194.574463 591.265015,1184.945679 &#10;&#9;C587.572876,1183.609131 585.702148,1184.421265 584.445862,1187.890137 &#10;&#9;C581.862854,1195.021729 578.831970,1201.991089 575.698547,1209.736206 &#10;&#9;C574.426514,1206.918457 573.495911,1204.857056 572.205994,1202.123901 &#10;M723.078308,1212.473999 &#10;&#9;C727.673035,1213.315918 732.338379,1215.109863 736.846008,1214.775757 &#10;&#9;C743.571289,1214.277466 747.861816,1207.856934 746.828003,1201.715454 &#10;&#9;C746.019531,1196.912598 741.964172,1193.014771 736.719910,1192.000122 &#10;&#9;C729.603638,1190.623047 722.809509,1193.068481 720.046082,1198.001343 &#10;&#9;C717.561401,1202.436646 718.417908,1207.339722 723.078308,1212.473999 &#10;M1296.782715,1206.361816 &#10;&#9;C1297.821899,1207.256348 1298.860962,1208.150879 1299.900146,1209.045410 &#10;&#9;C1298.738281,1209.793823 1297.559814,1211.192627 1296.418091,1211.163208 &#10;&#9;C1293.532104,1211.088867 1290.672729,1210.284180 1287.782349,1209.947510 &#10;&#9;C1286.148315,1209.757202 1284.473877,1209.913208 1282.817627,1209.913208 &#10;&#9;C1286.694336,1214.852051 1290.124756,1215.880127 1296.072998,1215.252930 &#10;&#9;C1301.212891,1214.710938 1304.677734,1212.073853 1304.597046,1208.446899 &#10;&#9;C1304.494995,1203.849487 1300.606201,1203.211060 1297.353271,1202.144653 &#10;&#9;C1294.840576,1201.320923 1292.166138,1200.980713 1289.673584,1200.110718 &#10;&#9;C1288.832520,1199.817261 1288.051758,1198.631226 1287.805298,1197.703857 &#10;&#9;C1287.705322,1197.327881 1289.128418,1196.021118 1289.818970,1196.051025 &#10;&#9;C1293.043091,1196.190308 1296.247559,1196.745972 1299.471680,1196.948975 &#10;&#9;C1300.956909,1197.042603 1302.471313,1196.669067 1303.972534,1196.507446 &#10;&#9;C1303.933228,1195.937256 1303.893799,1195.367065 1303.854492,1194.796875 &#10;&#9;C1298.589478,1191.199463 1292.782593,1190.522339 1286.990112,1193.072021 &#10;&#9;C1285.165405,1193.875366 1283.281860,1196.652344 1283.178833,1198.617798 &#10;&#9;C1283.090454,1200.304443 1285.144775,1202.839722 1286.894653,1203.716675 &#10;&#9;C1289.640137,1205.093018 1292.926880,1205.389282 1296.782715,1206.361816 &#10;M875.983398,1201.697998 &#10;&#9;C874.687988,1201.400024 873.255615,1201.352417 872.133057,1200.738403 &#10;&#9;C870.832703,1200.026855 869.804688,1198.817383 868.658447,1197.824097 &#10;&#9;C869.836975,1197.094482 871.026978,1195.739258 872.191772,1195.760620 &#10;&#9;C874.931152,1195.810791 877.646240,1196.646606 880.395508,1196.910156 &#10;&#9;C881.928772,1197.057129 883.510864,1196.694702 885.070923,1196.561890 &#10;&#9;C885.015198,1195.970337 884.959412,1195.378906 884.903625,1194.787354 &#10;&#9;C879.824280,1191.375977 874.177979,1190.506226 868.521240,1192.874756 &#10;&#9;C866.536926,1193.705566 864.367371,1196.508179 864.215027,1198.554321 &#10;&#9;C864.087769,1200.262939 866.444153,1202.751831 868.314209,1203.858765 &#10;&#9;C870.505554,1205.156006 873.384277,1205.254150 875.920227,1206.020142 &#10;&#9;C877.712463,1206.561523 879.430420,1207.348755 881.371155,1208.099609 &#10;&#9;C878.200073,1212.048584 873.943665,1212.741821 869.164246,1210.044556 &#10;&#9;C866.643982,1208.621948 864.992126,1208.305908 863.727356,1211.496826 &#10;&#9;C867.714600,1215.459595 872.646057,1215.656982 877.676331,1215.149048 &#10;&#9;C881.570740,1214.755737 884.979980,1213.216309 885.499451,1208.821655 &#10;&#9;C886.021484,1204.405151 882.282959,1203.556885 879.203735,1202.369141 &#10;&#9;C878.440796,1202.074951 877.582031,1202.029297 875.983398,1201.697998 &#10;M1126.929077,1210.401001 &#10;&#9;C1126.993164,1211.865234 1127.057251,1213.329468 1127.131226,1215.020020 &#10;&#9;C1128.655029,1214.927002 1129.896362,1214.851196 1131.382324,1214.760498 &#10;&#9;C1131.382324,1210.015869 1131.579224,1205.530273 1131.336060,1201.068604 &#10;&#9;C1130.976074,1194.464355 1126.994141,1191.048706 1120.433350,1191.840698 &#10;&#9;C1117.905029,1192.145874 1115.493896,1193.420044 1113.771484,1194.001953 &#10;&#9;C1111.787598,1193.089844 1110.162231,1192.342529 1108.020630,1191.357910 &#10;&#9;C1108.020630,1199.841675 1108.020630,1207.254639 1108.020630,1214.811401 &#10;&#9;C1109.480591,1214.811401 1110.753174,1214.811401 1112.343018,1214.811401 &#10;&#9;C1112.343018,1210.619507 1112.116089,1206.622192 1112.406250,1202.662720 &#10;&#9;C1112.701782,1198.631958 1116.214355,1195.850098 1120.296265,1195.946533 &#10;&#9;C1124.852539,1196.054077 1126.828003,1198.649414 1126.913330,1202.971069 &#10;&#9;C1126.956055,1205.133789 1126.925903,1207.297729 1126.929077,1210.401001 &#10;M1567.101685,1225.031616 &#10;&#9;C1567.565430,1224.871582 1568.290649,1224.847656 1568.455200,1224.531616 &#10;&#9;C1574.008667,1213.873657 1579.508911,1203.187988 1585.042603,1192.456177 &#10;&#9;C1581.263550,1191.215332 1579.408691,1192.419800 1578.091797,1195.644165 &#10;&#9;C1575.940796,1200.910889 1573.346313,1205.996460 1570.680420,1211.712646 &#10;&#9;C1567.703735,1205.783081 1564.945435,1200.672363 1562.560791,1195.393066 &#10;&#9;C1561.148926,1192.267700 1559.296753,1191.162598 1555.778076,1192.574585 &#10;&#9;C1558.376465,1197.508789 1560.579834,1202.554199 1563.544067,1207.104004 &#10;&#9;C1567.265381,1212.815796 1569.094727,1218.208374 1564.082642,1224.036499 &#10;&#9;C1563.994263,1224.139282 1564.260254,1224.546631 1564.412109,1224.947144 &#10;&#9;C1565.008667,1224.977539 1565.660156,1225.010620 1567.101685,1225.031616 &#10;M428.436523,1215.029541 &#10;&#9;C430.888153,1215.029541 433.339752,1215.029541 435.795776,1215.029541 &#10;&#9;C435.714935,1210.936157 435.714935,1210.936157 429.061523,1209.640869 &#10;&#9;C429.061523,1202.919922 429.061523,1196.180908 429.061523,1189.024902 &#10;&#9;C431.372345,1189.024902 433.467896,1189.024902 435.966888,1189.024902 &#10;&#9;C435.808350,1187.236572 435.690247,1185.904297 435.569000,1184.536743 &#10;&#9;C429.179688,1184.536743 423.259399,1184.536743 417.171204,1184.536743 &#10;&#9;C417.171204,1186.131836 417.171204,1187.517700 417.171204,1188.883057 &#10;&#9;C419.552032,1189.031128 421.632843,1189.160522 423.749084,1189.292114 &#10;&#9;C423.749084,1196.447388 423.749084,1203.217773 423.749084,1210.100342 &#10;&#9;C421.459808,1210.231812 419.365112,1210.352173 417.190125,1210.477173 &#10;&#9;C417.190125,1212.150513 417.190125,1213.541382 417.190125,1215.029541 &#10;&#9;C420.828217,1215.029541 424.151398,1215.029541 428.436523,1215.029541 &#10;M846.386597,1213.197754 &#10;&#9;C847.647888,1213.987549 848.909119,1214.777466 850.875732,1216.008911 &#10;&#9;C850.875732,1207.298340 850.875732,1199.877319 850.875732,1192.235352 &#10;&#9;C849.465942,1192.235352 848.224426,1192.235352 846.314514,1192.235352 &#10;&#9;C846.314514,1196.514038 846.661621,1200.677002 846.218994,1204.754272 &#10;&#9;C845.755554,1209.023560 842.627014,1210.940186 838.506165,1210.949341 &#10;&#9;C834.256653,1210.958862 832.129395,1208.475952 831.978271,1204.389404 &#10;&#9;C831.832153,1200.438721 831.946594,1196.478271 831.946594,1192.362915 &#10;&#9;C830.005432,1192.362915 828.660400,1192.362915 827.142578,1192.362915 &#10;&#9;C827.142578,1197.006836 826.851929,1201.332642 827.204956,1205.605347 &#10;&#9;C827.874451,1213.708252 834.254761,1217.469116 841.817932,1214.462646 &#10;&#9;C843.194519,1213.915649 844.493103,1213.172485 846.386597,1213.197754 &#10;M1523.852173,1208.555664 &#10;&#9;C1529.346558,1216.644165 1538.226929,1217.795654 1547.532471,1211.425903 &#10;&#9;C1546.842163,1210.404053 1546.151123,1209.381470 1545.993286,1209.147827 &#10;&#9;C1541.632324,1209.853271 1537.940430,1210.966309 1534.267090,1210.908447 &#10;&#9;C1530.099365,1210.842651 1527.107544,1207.076660 1527.220703,1203.270386 &#10;&#9;C1527.336060,1199.394165 1530.439575,1196.018555 1534.667236,1196.043335 &#10;&#9;C1537.370483,1196.059082 1540.393188,1196.621216 1542.687378,1197.949463 &#10;&#9;C1545.822266,1199.764282 1546.662720,1198.577271 1547.396729,1195.979004 &#10;&#9;C1541.958130,1191.238159 1533.889648,1190.300537 1528.365723,1193.654175 &#10;&#9;C1523.301270,1196.728882 1521.871094,1200.918945 1523.852173,1208.555664 &#10;M532.501953,1189.026367 &#10;&#9;C535.125366,1188.654663 536.330078,1189.415039 536.242188,1192.436401 &#10;&#9;C536.026001,1199.863770 536.171448,1207.301758 536.171448,1215.069824 &#10;&#9;C538.131165,1214.936157 539.503723,1214.842529 541.277100,1214.721558 &#10;&#9;C541.277100,1205.951416 541.277100,1197.556519 541.277100,1189.006470 &#10;&#9;C545.008362,1189.006470 548.309570,1189.006470 551.799927,1189.006470 &#10;&#9;C551.799927,1187.425415 551.799927,1186.021118 551.799927,1184.338379 &#10;&#9;C544.071228,1184.338379 536.613708,1184.476196 529.164978,1184.281006 &#10;&#9;C525.363464,1184.181274 525.066101,1185.859619 526.043579,1189.027466 &#10;&#9;C527.961487,1189.027466 529.769592,1189.027466 532.501953,1189.026367 &#10;M761.917725,1204.531616 &#10;&#9;C761.917725,1207.982666 761.917725,1211.433594 761.917725,1215.131470 &#10;&#9;C763.706177,1214.961426 764.945007,1214.843628 766.552856,1214.690674 &#10;&#9;C766.552856,1208.635742 766.552856,1202.874756 766.552856,1196.827881 &#10;&#9;C769.179016,1196.632446 771.431091,1196.464844 773.856323,1196.284424 &#10;&#9;C773.856323,1194.800537 773.856323,1193.459717 773.856323,1191.783203 &#10;&#9;C771.210083,1191.783203 768.943054,1191.783203 766.634949,1191.783203 &#10;&#9;C766.468933,1189.483643 766.327026,1187.518311 766.174072,1185.400391 &#10;&#9;C764.750793,1185.400391 763.523682,1185.400391 762.161804,1185.400391 &#10;&#9;C761.972595,1187.715698 761.802917,1189.792480 761.638123,1191.808960 &#10;&#9;C759.326599,1191.985474 757.381409,1192.133911 755.465637,1192.280151 &#10;&#9;C753.885620,1199.008057 759.898376,1195.153564 761.916809,1197.479614 &#10;&#9;C761.916809,1199.260742 761.916809,1201.407227 761.917725,1204.531616 &#10;M1250.419922,1188.016968 &#10;&#9;C1249.396973,1186.867798 1248.374146,1185.718750 1247.351196,1184.569580 &#10;&#9;C1246.952393,1184.919312 1246.553589,1185.269043 1246.154785,1185.618774 &#10;&#9;C1245.979248,1187.696899 1245.803711,1189.774902 1245.631958,1191.807617 &#10;&#9;C1243.344238,1191.980835 1241.398438,1192.128174 1239.482910,1192.273193 &#10;&#9;C1237.847290,1199.006470 1243.892822,1195.159668 1246.037354,1197.642944 &#10;&#9;C1246.037354,1203.049683 1246.037354,1208.980835 1246.037354,1215.144409 &#10;&#9;C1247.729492,1214.969360 1248.968140,1214.841309 1250.583374,1214.674194 &#10;&#9;C1250.583374,1208.591797 1250.583374,1202.828247 1250.583374,1196.808960 &#10;&#9;C1253.228027,1196.615601 1255.480713,1196.450806 1258.136353,1196.256714 &#10;&#9;C1258.060425,1194.743286 1257.993652,1193.411133 1257.968750,1192.916138 &#10;&#9;C1255.338623,1190.475708 1250.452026,1194.980103 1250.419922,1188.016968 &#10;M908.839661,1196.505859 &#10;&#9;C912.808472,1196.857788 912.732849,1194.850098 911.548035,1191.733154 &#10;&#9;C909.151428,1191.733154 906.902710,1191.733154 904.640503,1191.733154 &#10;&#9;C904.464111,1189.395996 904.315979,1187.432739 904.165649,1185.440674 &#10;&#9;C902.689453,1185.440674 901.460754,1185.440674 900.129761,1185.440674 &#10;&#9;C899.949646,1187.788818 899.791199,1189.854370 899.666382,1191.481812 &#10;&#9;C897.054260,1192.906616 891.916443,1189.816040 893.490540,1196.158447 &#10;&#9;C895.582886,1196.406616 897.644409,1196.651123 899.958374,1196.925659 &#10;&#9;C899.958374,1203.008789 899.958374,1208.797852 899.958374,1214.977173 &#10;&#9;C901.605530,1214.871338 902.923340,1214.786621 904.425781,1214.690063 &#10;&#9;C904.425781,1211.928589 904.425659,1209.609131 904.425903,1207.289795 &#10;&#9;C904.426147,1204.793579 904.571533,1202.286865 904.388672,1199.804077 &#10;&#9;C904.185425,1197.044434 905.510803,1196.258667 908.839661,1196.505859 &#10;M1045.331665,1212.903320 &#10;&#9;C1045.334595,1210.251709 1045.265381,1207.597534 1045.355103,1204.948853 &#10;&#9;C1045.567993,1198.671143 1048.691284,1196.071655 1055.055542,1196.759521 &#10;&#9;C1055.849487,1196.845337 1056.653320,1196.841919 1057.739136,1196.893433 &#10;&#9;C1057.904297,1195.273071 1058.048706,1193.856445 1058.339111,1191.006714 &#10;&#9;C1053.616577,1192.225708 1049.698486,1193.237183 1046.134521,1194.157104 &#10;&#9;C1044.824341,1193.384644 1043.246826,1192.454590 1040.990967,1191.124634 &#10;&#9;C1040.990967,1199.838623 1040.990967,1207.238770 1040.990967,1215.470703 &#10;&#9;C1042.689453,1214.800293 1043.993530,1214.285645 1045.331665,1212.903320 &#10;M800.893494,1220.467651 &#10;&#9;C801.288513,1223.349609 802.948975,1223.986694 805.477234,1223.026978 &#10;&#9;C809.399658,1221.538086 811.910339,1218.709351 812.165466,1214.544556 &#10;&#9;C812.550781,1208.254272 812.390320,1201.932373 812.686707,1195.634399 &#10;&#9;C812.857788,1191.998047 811.315186,1191.387451 807.970215,1192.476562 &#10;&#9;C807.970215,1198.480225 807.955505,1204.439941 807.974915,1210.399536 &#10;&#9;C807.990601,1215.223877 806.315308,1218.802979 800.893494,1220.467651 &#10;M1397.012817,1207.422729 &#10;&#9;C1397.012817,1199.310181 1397.012817,1191.197632 1397.012817,1182.660767 &#10;&#9;C1395.146484,1182.856934 1393.793701,1182.999023 1392.566406,1183.128052 &#10;&#9;C1392.566406,1193.945923 1392.566406,1204.244507 1392.566406,1214.691406 &#10;&#9;C1394.125732,1214.691406 1395.468750,1214.691406 1397.012695,1214.691406 &#10;&#9;C1397.012695,1212.369141 1397.012695,1210.383179 1397.012817,1207.422729 &#10;M1227.463989,1198.711548 &#10;&#9;C1227.463989,1196.583618 1227.463989,1194.455811 1227.463989,1192.260498 &#10;&#9;C1225.738403,1192.260498 1224.496094,1192.260498 1223.155396,1192.260498 &#10;&#9;C1223.155396,1199.921021 1223.155396,1207.337402 1223.155396,1214.988892 &#10;&#9;C1224.632568,1214.921021 1225.877686,1214.863647 1227.465454,1214.790649 &#10;&#9;C1227.465454,1209.584839 1227.465454,1204.621948 1227.463989,1198.711548 &#10;M400.012909,1192.711792 &#10;&#9;C401.526794,1194.064819 402.884918,1195.713867 404.628174,1196.630981 &#10;&#9;C405.365845,1197.018921 407.101044,1196.090820 408.013672,1195.322388 &#10;&#9;C408.471191,1194.937134 408.467133,1193.001587 408.048706,1192.730957 &#10;&#9;C403.032928,1189.487427 405.443573,1186.860596 409.055084,1184.476318 &#10;&#9;C404.615479,1182.095337 400.245819,1186.005615 400.012909,1192.711792 &#10;M1593.126221,1183.425659 &#10;&#9;C1593.113281,1184.522827 1592.664551,1186.296753 1593.154785,1186.612549 &#10;&#9;C1598.152710,1189.831055 1595.635620,1192.209595 1592.395996,1195.258545 &#10;&#9;C1594.435791,1195.494019 1596.266235,1195.367432 1597.519287,1194.451294 &#10;&#9;C1600.475952,1192.289185 1602.583252,1189.356812 1600.759277,1185.547852 &#10;&#9;C1599.395630,1182.700439 1596.843994,1181.671875 1593.126221,1183.425659 &#10;M1612.820435,1188.387329 &#10;&#9;C1612.489624,1187.279053 1612.496948,1185.758179 1611.755615,1185.150391 &#10;&#9;C1610.324585,1183.977173 1608.541626,1183.055298 1606.757935,1182.578003 &#10;&#9;C1606.048218,1182.388184 1604.082764,1183.995850 1604.165161,1184.205444 &#10;&#9;C1604.768066,1185.740479 1605.743286,1187.129761 1606.606934,1188.561768 &#10;&#9;C1606.943848,1189.120483 1607.295044,1189.670654 1607.760742,1190.418945 &#10;&#9;C1607.065063,1191.188721 1606.445923,1191.916748 1605.779907,1192.599121 &#10;&#9;C1605.113770,1193.281616 1604.400757,1193.918457 1603.666260,1194.615234 &#10;&#9;C1606.991211,1196.788940 1609.908447,1194.934570 1612.820435,1188.387329 &#10;M395.795471,1186.172852 &#10;&#9;C397.687225,1184.841309 397.449799,1182.446777 395.525665,1183.192871 &#10;&#9;C392.782532,1184.256592 390.111694,1187.047607 388.855316,1189.768188 &#10;&#9;C388.206329,1191.173584 390.319458,1194.350464 391.905334,1196.057129 &#10;&#9;C392.575226,1196.778076 395.101624,1195.774170 396.784180,1195.554199 &#10;&#9;C396.353882,1194.131836 396.349121,1192.235840 395.403809,1191.386719 &#10;&#9;C393.487274,1189.665283 392.909943,1188.377075 395.795471,1186.172852 &#10;M1184.297852,1223.024536 &#10;&#9;C1186.278687,1221.122192 1188.685669,1219.494385 1190.133911,1217.248657 &#10;&#9;C1191.994995,1214.362549 1190.067871,1209.952026 1186.866089,1209.345703 &#10;&#9;C1185.505981,1209.088135 1183.910522,1210.072754 1182.422119,1210.492798 &#10;&#9;C1182.816040,1211.766235 1183.043091,1213.127930 1183.656006,1214.285400 &#10;&#9;C1184.159790,1215.237183 1185.121582,1215.946533 1186.549805,1217.484009 &#10;&#9;C1185.230957,1218.479126 1183.835571,1219.173462 1183.030518,1220.292480 &#10;&#9;C1182.635498,1220.841675 1183.335205,1222.178345 1184.297852,1223.024536 &#10;M1272.725464,1189.389038 &#10;&#9;C1273.084229,1187.856201 1273.443115,1186.323364 1273.919189,1184.289185 &#10;&#9;C1271.823853,1184.447388 1270.279175,1184.564087 1268.378296,1184.707642 &#10;&#9;C1268.378296,1188.844116 1268.378296,1192.508057 1268.378296,1196.171875 &#10;&#9;C1268.928467,1196.345947 1269.478638,1196.519897 1270.028931,1196.693970 &#10;&#9;C1270.821533,1194.499634 1271.614258,1192.305298 1272.725464,1189.389038 &#10;M809.707458,1181.417603 &#10;&#9;C809.149475,1182.866699 808.479065,1184.292847 808.174988,1185.793457 &#10;&#9;C808.136597,1185.982666 810.123718,1187.020020 810.991150,1186.831299 &#10;&#9;C811.847107,1186.645142 813.231384,1185.046875 813.062622,1184.686157 &#10;&#9;C812.478821,1183.437866 811.319275,1182.458862 809.707458,1181.417603 &#10;M1228.016235,1183.838257 &#10;&#9;C1226.361938,1183.354858 1224.707764,1182.871460 1223.053467,1182.388062 &#10;&#9;C1223.100220,1183.723389 1222.619507,1185.750610 1223.292969,1186.264038 &#10;&#9;C1225.285156,1187.782959 1227.260864,1187.428101 1228.016235,1183.838257 &#10;z"/>
<path fill="#6B2A2D" opacity="1.000000" stroke="none" d="&#10;M520.673584,856.028687 &#10;&#9;C543.721436,838.746216 585.857605,847.580750 605.716492,876.188171 &#10;&#9;C615.957336,890.940430 622.641785,907.384216 630.170105,923.493591 &#10;&#9;C638.387390,941.077148 647.028870,958.497498 656.348755,975.516174 &#10;&#9;C661.089478,984.173157 668.469360,990.999329 678.078125,994.584534 &#10;&#9;C681.148132,995.730042 684.529053,996.016724 687.703796,996.920837 &#10;&#9;C688.794678,997.231384 689.691040,998.225220 690.289490,999.520508 &#10;&#9;C665.055725,999.823486 641.060913,996.740906 622.079712,978.275574 &#10;&#9;C610.170410,966.689880 604.517151,951.754700 601.143799,935.953918 &#10;&#9;C597.742554,920.022766 595.302307,903.886108 591.889099,887.957825 &#10;&#9;C589.529114,876.944519 585.475159,866.430664 576.201233,859.164917 &#10;&#9;C559.064514,845.739136 523.168640,844.269775 507.789673,878.209167 &#10;&#9;C498.474274,898.766968 491.999725,920.305298 489.170410,942.662720 &#10;&#9;C486.896729,960.629578 486.202423,978.796326 484.806885,996.874329 &#10;&#9;C484.731812,997.846558 484.652740,998.818481 484.557281,1000.020325 &#10;&#9;C474.785004,1000.020325 465.171021,1000.020325 455.269165,1000.020325 &#10;&#9;C455.269165,908.414368 455.269165,816.858765 455.269165,725.015381 &#10;&#9;C464.974884,725.015381 474.705322,725.015381 484.821533,725.015381 &#10;&#9;C484.821533,797.701416 484.821533,870.135620 484.821533,942.569763 &#10;&#9;C484.954956,942.570496 485.088379,942.571228 485.221802,942.571960 &#10;&#9;C487.895569,931.002075 490.166565,919.321228 493.317200,907.882690 &#10;&#9;C503.556030,870.710144 522.804688,838.277100 546.356506,808.120544 &#10;&#9;C558.127686,793.048340 569.866394,777.928406 580.965942,762.363831 &#10;&#9;C586.149902,755.094421 590.115662,746.683044 589.750732,737.378662 &#10;&#9;C589.587341,733.213257 587.504150,729.123169 586.282837,724.966919 &#10;&#9;C606.003540,724.966919 626.511963,724.966919 647.958252,724.966919 &#10;&#9;C625.696716,731.567627 608.430298,744.826538 592.529358,759.709229 &#10;&#9;C582.732727,768.878540 574.352600,779.600220 565.645508,789.886597 &#10;&#9;C548.631714,809.986267 532.613220,830.827942 519.339600,854.449463 &#10;&#9;C518.669373,855.904663 518.336487,856.780029 518.003601,857.655457 &#10;&#9;C518.415466,857.963745 518.827393,858.272095 519.239258,858.580383 &#10;&#9;C519.717346,857.729858 520.195435,856.879272 520.673584,856.028687 &#10;z"/>
<path fill="#6B2A2D" opacity="1.000000" stroke="none" d="&#10;M1106.150269,740.013794 &#10;&#9;C1106.150513,826.974243 1106.150513,913.437744 1106.150513,1000.024658 &#10;&#9;C1095.920410,1000.024658 1086.139282,1000.024658 1075.984619,1000.024658 &#10;&#9;C1075.984619,909.167236 1075.984619,818.549683 1075.984619,727.586060 &#10;&#9;C1042.519043,727.664429 1009.748779,728.539124 983.838623,754.390076 &#10;&#9;C981.477722,745.885803 984.118469,740.032532 990.234680,735.063049 &#10;&#9;C998.311035,728.500977 1007.465271,724.787231 1017.743347,724.735229 &#10;&#9;C1077.403442,724.433105 1137.064697,724.342773 1196.725586,724.193787 &#10;&#9;C1197.354858,724.192200 1197.984619,724.364136 1198.835693,724.487061 &#10;&#9;C1198.835693,734.268433 1198.835693,743.871582 1198.835693,754.672852 &#10;&#9;C1172.664062,729.067505 1140.065552,727.450134 1106.150024,727.632629 &#10;&#9;C1106.150024,731.687561 1106.150024,735.602173 1106.150269,740.013794 &#10;M988.445435,740.966858 &#10;&#9;C988.178406,741.116394 987.911377,741.265869 987.644348,741.415405 &#10;&#9;C988.119568,741.294861 988.594849,741.174316 989.480469,740.816162 &#10;&#9;C989.737122,740.617798 989.928406,740.369141 990.794250,740.027893 &#10;&#9;C995.305298,738.652954 999.082764,736.489441 1000.703796,732.008179 &#10;&#9;C1000.222290,731.504761 999.740723,731.001404 999.259216,730.497986 &#10;&#9;C996.145447,733.644043 993.031738,736.790039 989.506226,740.170532 &#10;&#9;C989.247925,740.367310 989.057312,740.616028 988.445435,740.966858 &#10;z"/>
<path fill="#6B282C" opacity="1.000000" stroke="none" d="&#10;M812.086670,754.272827 &#10;&#9;C817.797180,744.039978 823.507629,733.807068 829.218079,723.574158 &#10;&#9;C830.023315,723.584351 830.828552,723.594482 831.633789,723.604614 &#10;&#9;C833.852600,727.487549 836.559387,731.175476 838.202332,735.288452 &#10;&#9;C844.058289,749.948120 849.195312,764.900696 855.248901,779.474670 &#10;&#9;C875.502319,828.234436 896.008728,876.889221 916.470703,925.562134 &#10;&#9;C926.836853,950.220032 937.315918,974.830383 948.081909,1000.260681 &#10;&#9;C939.285950,1000.260681 930.856934,999.873657 922.484924,1000.398254 &#10;&#9;C916.999146,1000.741943 914.523804,999.034302 912.400940,993.803284 &#10;&#9;C899.218628,961.319763 885.565369,929.027466 872.005859,896.095093 &#10;&#9;C871.831421,895.256836 871.648376,895.062134 871.394165,894.934265 &#10;&#9;C871.394165,894.934265 871.155518,894.967957 871.054443,894.509277 &#10;&#9;C870.320496,892.362244 869.687561,890.673950 868.831665,888.714722 &#10;&#9;C850.751770,846.937622 832.904297,805.427490 815.004578,763.939880 &#10;&#9;C814.260132,762.214294 813.027466,760.699341 812.020874,758.684448 &#10;&#9;C812.041870,756.945984 812.064270,755.609375 812.086670,754.272827 &#10;z"/>
<path fill="#6B282C" opacity="1.000000" stroke="none" d="&#10;M1592.098755,754.337402 &#10;&#9;C1597.023438,745.481323 1601.894531,736.594604 1606.933350,727.804016 &#10;&#9;C1607.648682,726.556030 1609.179199,725.775391 1610.332275,724.778442 &#10;&#9;C1611.189575,725.886658 1612.331909,726.873657 1612.862671,728.120972 &#10;&#9;C1625.482422,757.781555 1638.037598,787.469849 1650.602661,817.153870 &#10;&#9;C1675.801758,876.684387 1701.000000,936.215210 1726.198120,995.746155 &#10;&#9;C1726.755249,997.062561 1727.307007,998.381348 1728.096558,1000.258484 &#10;&#9;C1717.531250,1000.258484 1707.573608,1000.371155 1697.625488,1000.116028 &#10;&#9;C1696.380249,1000.084045 1694.616333,998.347351 1694.049805,996.998596 &#10;&#9;C1680.921753,965.748352 1667.926025,934.442505 1654.859375,902.499146 &#10;&#9;C1654.581177,901.553711 1654.349365,901.256104 1654.117554,900.958496 &#10;&#9;C1654.117554,900.958557 1654.023438,900.909912 1654.052979,900.486450 &#10;&#9;C1653.409424,898.698425 1652.736206,897.333862 1652.062988,895.969238 &#10;&#9;C1652.062866,895.969299 1651.998169,895.945984 1651.983154,895.730103 &#10;&#9;C1651.864868,895.267334 1651.699585,895.073120 1651.472412,894.931641 &#10;&#9;C1651.472412,894.931641 1651.208008,894.968689 1651.082886,894.506226 &#10;&#9;C1650.332642,892.360107 1649.707520,890.676514 1648.879150,888.699951 &#10;&#9;C1630.751221,846.748352 1612.835815,805.085693 1594.865723,763.446594 &#10;&#9;C1594.192139,761.885742 1592.988159,760.553589 1592.028564,758.715576 &#10;&#9;C1592.050049,756.989990 1592.074341,755.663696 1592.098755,754.337402 &#10;z"/>
<path fill="#6B282C" opacity="1.000000" stroke="none" d="&#10;M1368.183105,965.440063 &#10;&#9;C1368.183105,965.440063 1368.207153,965.767456 1367.782959,966.051636 &#10;&#9;C1366.885132,967.848328 1366.411499,969.360962 1365.937866,970.873535 &#10;&#9;C1365.937866,970.873535 1365.982544,970.939758 1365.686523,971.164062 &#10;&#9;C1364.892456,972.844666 1364.394409,974.300964 1363.896362,975.757324 &#10;&#9;C1363.896362,975.757324 1363.973511,975.873840 1363.567139,975.991882 &#10;&#9;C1362.415161,978.331604 1361.669800,980.553284 1360.924316,982.774963 &#10;&#9;C1359.047729,987.379272 1357.292725,992.039368 1355.223267,996.555298 &#10;&#9;C1354.570679,997.979431 1353.076416,999.017883 1351.967285,1000.232910 &#10;&#9;C1350.993652,999.054443 1349.671753,998.023987 1349.098633,996.675354 &#10;&#9;C1340.196899,975.730103 1331.403442,954.738953 1322.563232,933.767578 &#10;&#9;C1293.848022,865.647888 1265.122437,797.532471 1236.411987,729.410706 &#10;&#9;C1235.787720,727.929443 1235.295776,726.392212 1234.491333,724.196655 &#10;&#9;C1244.879028,724.196655 1254.638306,724.050354 1264.381714,724.377747 &#10;&#9;C1265.628906,724.419739 1267.250977,726.732117 1267.928833,728.321289 &#10;&#9;C1282.658203,762.849792 1297.284302,797.422363 1311.917847,831.991638 &#10;&#9;C1329.596069,873.753967 1347.262573,915.521179 1364.960449,957.952026 &#10;&#9;C1365.295776,959.087646 1365.604858,959.557495 1365.913940,960.027344 &#10;&#9;C1365.913940,960.027344 1366.021851,960.079895 1366.223389,960.423279 &#10;&#9;C1367.010864,962.324463 1367.596924,963.882263 1368.183105,965.440063 &#10;z"/>
<path fill="#6A262A" opacity="1.000000" stroke="none" d="&#10;M303.067322,886.000000 &#10;&#9;C303.067322,924.267456 303.067322,962.034912 303.067322,1000.007935 &#10;&#9;C293.183228,1000.007935 283.782623,1000.007935 274.145203,1000.007935 &#10;&#9;C274.145203,908.257568 274.145203,816.735352 274.145203,724.987671 &#10;&#9;C283.798431,724.987671 293.197388,724.987671 303.067322,724.987671 &#10;&#9;C303.067322,778.643799 303.067322,832.071899 303.067322,886.000000 &#10;z"/>
<path fill="#6C3C40" opacity="1.000000" stroke="none" d="&#10;M811.855957,754.503296 &#10;&#9;C812.064270,755.609375 812.041870,756.945984 811.962036,759.034912 &#10;&#9;C799.408875,784.935852 786.549622,809.911926 774.507446,835.275879 &#10;&#9;C758.681458,868.609863 744.057129,902.482483 734.606140,938.290466 &#10;&#9;C730.789307,952.751587 727.169128,967.323792 730.008423,982.570496 &#10;&#9;C731.653870,991.406189 736.505798,997.074951 745.349060,998.722473 &#10;&#9;C753.272034,1000.198608 759.346313,996.540039 763.775879,990.318115 &#10;&#9;C766.257141,986.832886 768.183105,982.886353 769.928467,978.956299 &#10;&#9;C773.836060,970.158020 777.226501,961.125366 781.271057,952.393555 &#10;&#9;C791.115845,931.139648 805.204407,913.696655 826.748230,903.208984 &#10;&#9;C839.294678,897.101379 852.653320,893.851624 866.421204,892.178711 &#10;&#9;C868.693420,891.902710 869.832581,891.428467 869.054626,888.985657 &#10;&#9;C869.687561,890.673950 870.320496,892.362244 871.021301,894.393372 &#10;&#9;C848.979187,896.781494 828.324341,902.743347 810.895935,917.265625 &#10;&#9;C798.881958,927.276367 790.582581,940.050110 784.111572,954.076843 &#10;&#9;C779.244812,964.626221 774.819824,975.379761 769.933289,985.919556 &#10;&#9;C768.487366,989.038208 766.434814,991.997192 764.158875,994.589233 &#10;&#9;C751.337158,1009.191406 732.935486,1002.545776 728.137695,986.911377 &#10;&#9;C725.974976,979.863647 725.797180,971.722473 726.675964,964.309387 &#10;&#9;C730.510437,931.964478 742.450989,901.975769 754.871948,872.197083 &#10;&#9;C771.636353,832.005066 790.700623,792.918579 811.855957,754.503296 &#10;z"/>
<path fill="#6C3C40" opacity="1.000000" stroke="none" d="&#10;M1649.082397,888.992920 &#10;&#9;C1649.707520,890.676514 1650.332642,892.360107 1651.027588,894.384705 &#10;&#9;C1629.163208,896.822815 1608.628540,902.664307 1591.261841,917.026611 &#10;&#9;C1579.598633,926.671875 1571.340210,938.874756 1565.005859,952.427979 &#10;&#9;C1560.786133,961.456970 1557.209961,970.788025 1552.944580,979.793884 &#10;&#9;C1550.543701,984.863342 1547.951050,990.073853 1544.367554,994.309265 &#10;&#9;C1531.805542,1009.156494 1513.909912,1002.760620 1508.026611,987.248657 &#10;&#9;C1504.351440,977.558716 1505.861816,967.528442 1507.518555,957.633484 &#10;&#9;C1513.002808,924.878845 1524.762329,894.073669 1538.497681,864.162598 &#10;&#9;C1555.408081,827.337219 1573.860596,791.220032 1591.872681,754.567078 &#10;&#9;C1592.074341,755.663696 1592.050049,756.989990 1591.981689,759.067139 &#10;&#9;C1578.119629,787.829041 1563.800903,815.606995 1550.610962,843.910889 &#10;&#9;C1534.466553,878.554321 1519.575073,913.749573 1511.588257,951.399170 &#10;&#9;C1509.154297,962.872742 1507.893799,974.288818 1510.908081,985.957153 &#10;&#9;C1514.201904,998.708130 1532.031982,1003.852234 1541.161377,993.279480 &#10;&#9;C1544.782227,989.086304 1547.548950,983.985352 1549.940063,978.935669 &#10;&#9;C1555.195068,967.838745 1559.520020,956.288452 1565.029053,945.327576 &#10;&#9;C1574.402954,926.676575 1588.245850,912.183350 1607.251953,903.003662 &#10;&#9;C1619.659912,897.010803 1632.867310,893.835144 1646.465942,892.181885 &#10;&#9;C1648.701172,891.910095 1649.904663,891.458191 1649.082397,888.992920 &#10;z"/>
<path fill="#6C3C40" opacity="1.000000" stroke="none" d="&#10;M1368.457397,965.204224 &#10;&#9;C1367.596924,963.882263 1367.010864,962.324463 1366.196289,960.476807 &#10;&#9;C1366.966919,958.584412 1368.204712,957.082764 1368.930908,955.364746 &#10;&#9;C1400.953003,879.608582 1432.920166,803.829163 1464.973877,728.086365 &#10;&#9;C1465.691772,726.389832 1467.329956,725.082764 1468.538818,723.594055 &#10;&#9;C1469.101929,723.969055 1469.665039,724.344116 1470.228149,724.719116 &#10;&#9;C1436.395996,804.802185 1402.563843,884.885254 1368.457397,965.204224 &#10;z"/>
<path fill="#264236" opacity="1.000000" stroke="none" d="&#10;M705.033203,1184.358154 &#10;&#9;C705.988892,1185.383789 706.956177,1186.394043 706.969849,1187.416992 &#10;&#9;C707.089539,1196.398193 707.039185,1205.381592 707.039185,1215.899292 &#10;&#9;C704.236694,1214.603027 701.677612,1214.109375 700.136963,1212.585815 &#10;&#9;C693.912842,1206.430420 688.002563,1199.957642 680.916809,1192.484497 &#10;&#9;C680.916809,1200.774780 680.916809,1207.569580 680.916809,1214.707031 &#10;&#9;C679.096436,1214.826538 677.706970,1214.917725 676.094421,1215.023560 &#10;&#9;C676.094421,1204.767700 676.094421,1194.838013 676.094421,1183.436279 &#10;&#9;C678.700989,1184.744507 681.091125,1185.310425 682.554810,1186.791748 &#10;&#9;C688.053162,1192.356567 693.296448,1198.177612 698.520081,1204.005981 &#10;&#9;C699.591797,1205.201904 700.166626,1206.843140 700.970520,1208.279053 &#10;&#9;C701.365662,1207.836914 701.760803,1207.394653 702.155945,1206.952393 &#10;&#9;C702.155945,1200.695801 702.019165,1194.433838 702.266907,1188.187012 &#10;&#9;C702.318787,1186.878784 703.787109,1185.626587 705.033203,1184.358154 &#10;z"/>
<path fill="#264236" opacity="1.000000" stroke="none" d="&#10;M1472.124756,1213.146484 &#10;&#9;C1470.548096,1224.602905 1459.901855,1228.614502 1449.211914,1222.188232 &#10;&#9;C1449.314819,1217.613525 1452.010498,1219.427612 1454.291138,1220.106079 &#10;&#9;C1462.162598,1222.447388 1466.604492,1220.013550 1467.178345,1212.682007 &#10;&#9;C1465.109497,1213.468384 1463.240845,1214.494995 1461.249023,1214.875244 &#10;&#9;C1455.752930,1215.924683 1450.512573,1215.510254 1446.867432,1210.500000 &#10;&#9;C1443.946045,1206.484619 1443.773315,1201.980713 1446.128174,1197.785767 &#10;&#9;C1448.973511,1192.716919 1453.876953,1191.289307 1459.414673,1191.787598 &#10;&#9;C1463.475708,1192.152832 1467.526123,1192.636963 1472.152832,1193.128784 &#10;&#9;C1472.152832,1199.152222 1472.152832,1205.936523 1472.124756,1213.146484 &#10;M1453.808228,1210.106201 &#10;&#9;C1456.249634,1210.390015 1458.746826,1211.141846 1461.120972,1210.859741 &#10;&#9;C1465.976318,1210.282837 1468.886719,1205.708740 1467.460083,1201.453369 &#10;&#9;C1466.181763,1197.640625 1463.267334,1196.056152 1459.418579,1195.920898 &#10;&#9;C1455.111206,1195.769409 1451.409790,1196.861084 1449.719971,1201.301636 &#10;&#9;C1448.292725,1205.052734 1450.069702,1207.704590 1453.808228,1210.106201 &#10;z"/>
<path fill="#264236" opacity="1.000000" stroke="none" d="&#10;M470.569275,1186.470947 &#10;&#9;C473.228607,1185.387451 475.611145,1184.547607 477.993683,1183.707642 &#10;&#9;C478.299500,1184.195190 478.605316,1184.682617 478.911133,1185.170166 &#10;&#9;C474.342590,1188.970459 469.774017,1192.770752 464.931702,1196.798828 &#10;&#9;C469.674225,1202.756348 474.281830,1208.544312 478.961609,1214.422974 &#10;&#9;C473.343445,1216.868164 471.420746,1212.666626 468.935028,1209.569458 &#10;&#9;C466.448883,1206.471924 463.969025,1203.369141 461.514832,1200.304077 &#10;&#9;C455.091400,1203.002686 452.355347,1207.636963 453.958282,1214.758301 &#10;&#9;C452.047089,1214.844482 450.652740,1214.907471 449.070312,1214.978882 &#10;&#9;C449.070312,1204.743408 449.070312,1194.827881 449.070312,1184.828613 &#10;&#9;C452.636658,1183.551270 454.023438,1184.655151 453.799347,1188.379395 &#10;&#9;C453.584839,1191.943848 453.753052,1195.531372 453.753052,1200.333618 &#10;&#9;C459.923187,1195.252930 465.107849,1190.983765 470.569275,1186.470947 &#10;z"/>
<path fill="#264236" opacity="1.000000" stroke="none" d="&#10;M1155.229736,1215.299438 &#10;&#9;C1149.539673,1214.922241 1145.666016,1212.528320 1143.938599,1207.356201 &#10;&#9;C1142.378052,1202.683838 1143.249878,1198.311401 1146.959473,1195.073364 &#10;&#9;C1152.706177,1190.056763 1159.082031,1191.058350 1165.828857,1194.375854 &#10;&#9;C1165.828857,1190.398315 1165.828857,1186.834717 1165.828857,1183.068359 &#10;&#9;C1167.585938,1183.068359 1168.961792,1183.068359 1170.421387,1183.068359 &#10;&#9;C1170.421387,1193.806641 1170.421387,1204.217407 1170.421387,1215.878540 &#10;&#9;C1168.164062,1214.664673 1166.581787,1213.813965 1165.124878,1213.030518 &#10;&#9;C1162.208862,1213.738037 1158.914795,1214.537476 1155.229736,1215.299438 &#10;M1151.153809,1209.592529 &#10;&#9;C1154.039062,1210.047729 1157.016357,1211.187012 1159.790039,1210.813843 &#10;&#9;C1165.328125,1210.068115 1167.838501,1203.723755 1164.755737,1199.346436 &#10;&#9;C1162.106323,1195.584473 1155.244385,1194.631348 1151.201294,1197.463623 &#10;&#9;C1147.219604,1200.253174 1146.985840,1204.366333 1151.153809,1209.592529 &#10;z"/>
<path fill="#264236" opacity="1.000000" stroke="none" d="&#10;M1024.345947,1212.411865 &#10;&#9;C1019.430542,1215.855591 1014.624817,1215.879272 1009.335022,1214.190186 &#10;&#9;C1007.233643,1213.519287 1004.580750,1214.575684 1001.993652,1214.866577 &#10;&#9;C1001.993652,1204.065063 1001.993652,1193.615723 1001.993652,1182.954834 &#10;&#9;C1003.411560,1182.954834 1004.660522,1182.954834 1006.397522,1182.954834 &#10;&#9;C1006.397522,1186.749634 1006.397522,1190.329224 1006.397522,1194.065430 &#10;&#9;C1016.695862,1190.477295 1022.960632,1191.500610 1026.636963,1197.121826 &#10;&#9;C1029.613647,1201.673218 1028.881836,1207.154053 1024.345947,1212.411865 &#10;M1018.640259,1196.403198 &#10;&#9;C1016.668579,1196.284180 1014.652710,1195.844482 1012.733704,1196.108398 &#10;&#9;C1007.682129,1196.803101 1004.536560,1201.521484 1006.268738,1205.850220 &#10;&#9;C1007.896606,1209.918213 1011.343323,1211.266602 1015.532104,1211.095093 &#10;&#9;C1019.582642,1210.929199 1022.736328,1209.219238 1023.763428,1205.198975 &#10;&#9;C1024.746338,1201.351807 1023.051208,1198.420654 1018.640259,1196.403198 &#10;z"/>
<path fill="#264236" opacity="1.000000" stroke="none" d="&#10;M509.786560,1189.102905 &#10;&#9;C513.704407,1197.728394 517.464905,1206.011230 521.287231,1214.430298 &#10;&#9;C517.851196,1215.876099 515.741943,1215.036133 514.792908,1211.623413 &#10;&#9;C513.952881,1208.602905 512.059570,1207.460815 508.895355,1207.797974 &#10;&#9;C506.266510,1208.078125 503.560913,1208.072388 500.930908,1207.796387 &#10;&#9;C497.655823,1207.452881 495.535339,1208.389282 494.667572,1211.745361 &#10;&#9;C493.818207,1215.030151 491.655243,1215.807373 488.399841,1214.506470 &#10;&#9;C492.666504,1205.164062 496.846130,1195.795410 501.295227,1186.556396 &#10;&#9;C501.826141,1185.454102 504.287231,1184.137329 505.050446,1184.520508 &#10;&#9;C506.836273,1185.416626 508.133911,1187.285400 509.786560,1189.102905 &#10;M506.983368,1203.061035 &#10;&#9;C508.053223,1202.987915 509.123077,1202.914795 510.717712,1202.805908 &#10;&#9;C508.634155,1198.325317 506.767303,1194.310913 504.660004,1189.779297 &#10;&#9;C502.558136,1194.533203 500.783691,1198.546387 498.787048,1203.062256 &#10;&#9;C501.617554,1203.062256 503.883484,1203.062256 506.983368,1203.061035 &#10;z"/>
<path fill="#264236" opacity="1.000000" stroke="none" d="&#10;M627.855347,1213.414551 &#10;&#9;C624.381897,1215.855835 623.417419,1215.819336 622.107361,1212.145386 &#10;&#9;C620.797241,1208.471558 618.626892,1207.349487 615.002686,1207.806152 &#10;&#9;C613.040161,1208.053467 610.997131,1208.042236 609.031616,1207.805542 &#10;&#9;C605.118835,1207.334717 602.596497,1208.456543 601.109314,1212.469849 &#10;&#9;C600.563293,1213.943604 598.054077,1214.690063 596.440369,1215.768188 &#10;&#9;C596.094055,1215.349854 595.747742,1214.931396 595.401428,1214.512939 &#10;&#9;C599.647644,1205.217163 603.815125,1195.883667 608.241882,1186.674805 &#10;&#9;C608.782288,1185.550537 610.812988,1184.360596 611.975159,1184.517578 &#10;&#9;C613.394836,1184.709351 615.210571,1186.008789 615.844727,1187.318359 &#10;&#9;C619.958557,1195.814575 623.797607,1204.443848 627.855347,1213.414551 &#10;M611.501831,1190.379639 &#10;&#9;C609.650391,1194.454956 607.798950,1198.530273 605.875061,1202.765137 &#10;&#9;C610.144348,1202.765137 613.672852,1202.765137 617.741333,1202.765137 &#10;&#9;C615.709167,1198.475708 613.890747,1194.637329 611.501831,1190.379639 &#10;z"/>
<path fill="#264236" opacity="1.000000" stroke="none" d="&#10;M1416.697754,1192.580811 &#10;&#9;C1420.953003,1192.589722 1425.090698,1192.000488 1428.707397,1193.109741 &#10;&#9;C1433.831177,1194.681030 1435.445557,1198.593018 1434.856812,1205.050049 &#10;&#9;C1427.857910,1205.050049 1420.801270,1205.050049 1413.562988,1205.050049 &#10;&#9;C1416.076538,1210.898560 1422.183594,1212.602173 1429.308350,1210.134766 &#10;&#9;C1430.678711,1209.660034 1432.401855,1210.204224 1433.937378,1211.160889 &#10;&#9;C1427.799927,1215.886963 1421.323975,1216.552856 1414.665894,1213.565430 &#10;&#9;C1410.526733,1211.708130 1408.183716,1208.156128 1408.298218,1203.623047 &#10;&#9;C1408.432251,1198.309692 1411.228027,1194.567261 1416.697754,1192.580811 &#10;M1425.179932,1201.188965 &#10;&#9;C1426.897095,1201.188965 1428.614258,1201.188965 1431.013306,1201.188965 &#10;&#9;C1428.502563,1196.230591 1424.858032,1195.724731 1420.945923,1195.981201 &#10;&#9;C1417.760864,1196.189941 1414.792236,1196.912720 1413.529053,1201.191528 &#10;&#9;C1417.395630,1201.191528 1420.832397,1201.191528 1425.179932,1201.188965 &#10;z"/>
<path fill="#264236" opacity="1.000000" stroke="none" d="&#10;M1072.064209,1192.939209 &#10;&#9;C1077.572388,1190.822998 1082.494385,1191.458008 1086.188965,1193.684448 &#10;&#9;C1088.665649,1192.855591 1090.320435,1192.301758 1092.424683,1191.597534 &#10;&#9;C1092.424683,1199.811157 1092.424683,1207.100586 1092.424683,1215.584229 &#10;&#9;C1090.331055,1214.682983 1088.766113,1214.009277 1086.284424,1212.941040 &#10;&#9;C1077.967896,1216.926636 1070.653931,1216.016357 1066.902344,1209.706421 &#10;&#9;C1063.408936,1203.830811 1065.216431,1197.558472 1072.064209,1192.939209 &#10;M1087.979004,1202.708618 &#10;&#9;C1085.755371,1196.336792 1079.449707,1193.886597 1073.749023,1197.179321 &#10;&#9;C1068.930298,1199.962769 1068.651978,1206.350098 1073.192261,1209.549805 &#10;&#9;C1077.749146,1212.760986 1088.112793,1211.304565 1087.979004,1202.708618 &#10;z"/>
<path fill="#264236" opacity="1.000000" stroke="none" d="&#10;M1331.563232,1206.255981 &#10;&#9;C1330.628784,1200.986938 1332.113770,1196.985962 1336.144775,1194.064575 &#10;&#9;C1340.641724,1190.805542 1346.310059,1190.879517 1352.568970,1193.893311 &#10;&#9;C1354.523438,1193.028198 1356.145142,1192.310303 1358.363525,1191.328491 &#10;&#9;C1358.363525,1199.786377 1358.363525,1207.217163 1358.363525,1215.886719 &#10;&#9;C1356.139771,1214.661743 1354.552856,1213.787720 1352.563110,1212.691650 &#10;&#9;C1343.120850,1217.889404 1335.258545,1215.849487 1331.563232,1206.255981 &#10;M1353.696045,1201.170410 &#10;&#9;C1352.801392,1200.002563 1352.051880,1198.004883 1350.985840,1197.818604 &#10;&#9;C1347.426880,1197.196777 1343.537231,1196.419556 1340.210938,1197.317871 &#10;&#9;C1338.355835,1197.818848 1336.104858,1201.647705 1336.317749,1203.744751 &#10;&#9;C1336.559814,1206.129517 1338.881714,1209.210571 1341.123779,1210.313110 &#10;&#9;C1347.643799,1213.520264 1353.825928,1209.188477 1353.696045,1201.170410 &#10;z"/>
<path fill="#264236" opacity="1.000000" stroke="none" d="&#10;M940.182495,1203.944946 &#10;&#9;C941.585388,1195.098877 946.261108,1191.112671 954.453247,1191.810059 &#10;&#9;C956.845276,1192.013672 959.133057,1193.702271 961.504700,1193.795776 &#10;&#9;C963.172363,1193.861572 964.901001,1192.380005 967.317505,1191.257080 &#10;&#9;C967.317505,1199.739990 967.317505,1207.146851 967.317505,1215.737915 &#10;&#9;C965.212219,1214.666992 963.633362,1213.864014 961.503967,1212.780884 &#10;&#9;C951.044067,1218.316772 942.646423,1215.325073 940.182495,1203.944946 &#10;M946.012573,1207.259644 &#10;&#9;C947.268555,1208.293823 948.383240,1209.622559 949.807556,1210.305908 &#10;&#9;C953.796570,1212.219849 959.320679,1211.021729 961.568970,1207.840088 &#10;&#9;C963.740479,1204.767212 963.637878,1201.617920 961.169250,1198.733521 &#10;&#9;C958.629822,1195.766357 953.027588,1194.947632 949.218994,1196.988281 &#10;&#9;C945.278320,1199.099731 944.003296,1202.306274 946.012573,1207.259644 &#10;z"/>
<path fill="#264236" opacity="1.000000" stroke="none" d="&#10;M1490.666016,1214.471924 &#10;&#9;C1483.690674,1210.558472 1481.397827,1204.056641 1484.590088,1198.021484 &#10;&#9;C1488.065308,1191.451538 1496.086182,1189.942627 1504.402100,1193.751099 &#10;&#9;C1506.634766,1192.912598 1508.269653,1192.298706 1510.408447,1191.495483 &#10;&#9;C1510.408447,1199.754395 1510.408447,1207.047852 1510.408447,1215.510010 &#10;&#9;C1508.374512,1214.686646 1506.809448,1214.053101 1505.837524,1213.659668 &#10;&#9;C1500.835327,1213.992188 1495.918823,1214.318970 1490.666016,1214.471924 &#10;M1494.108398,1210.892212 &#10;&#9;C1495.924072,1210.906616 1497.793335,1211.208618 1499.545776,1210.882812 &#10;&#9;C1505.323486,1209.808960 1508.023315,1203.442871 1504.541626,1199.144653 &#10;&#9;C1501.818481,1195.782837 1497.774658,1194.948120 1494.188477,1196.409058 &#10;&#9;C1491.698608,1197.423340 1489.075562,1200.165771 1488.240479,1202.704590 &#10;&#9;C1486.984985,1206.520874 1489.833862,1209.119751 1494.108398,1210.892212 &#10;z"/>
<path fill="#264236" opacity="1.000000" stroke="none" d="&#10;M572.385620,1202.459717 &#10;&#9;C573.495911,1204.857056 574.426514,1206.918457 575.698547,1209.736206 &#10;&#9;C578.831970,1201.991089 581.862854,1195.021729 584.445862,1187.890137 &#10;&#9;C585.702148,1184.421265 587.572876,1183.609131 591.265015,1184.945679 &#10;&#9;C587.092224,1194.574463 583.114136,1204.173462 578.591980,1213.509155 &#10;&#9;C578.161865,1214.397095 572.753967,1214.411499 572.314941,1213.520996 &#10;&#9;C567.721375,1204.204834 563.670837,1194.620972 559.411865,1184.979736 &#10;&#9;C562.824585,1183.643188 564.750000,1184.310059 565.981018,1187.489624 &#10;&#9;C567.893921,1192.430542 570.115356,1197.251831 572.385620,1202.459717 &#10;z"/>
<path fill="#264236" opacity="1.000000" stroke="none" d="&#10;M722.787598,1212.252441 &#10;&#9;C718.417908,1207.339722 717.561401,1202.436646 720.046082,1198.001343 &#10;&#9;C722.809509,1193.068481 729.603638,1190.623047 736.719910,1192.000122 &#10;&#9;C741.964172,1193.014771 746.019531,1196.912598 746.828003,1201.715454 &#10;&#9;C747.861816,1207.856934 743.571289,1214.277466 736.846008,1214.775757 &#10;&#9;C732.338379,1215.109863 727.673035,1213.315918 722.787598,1212.252441 &#10;M723.612549,1205.711060 &#10;&#9;C726.851501,1211.085327 733.459045,1212.876465 738.546509,1209.759399 &#10;&#9;C742.473877,1207.353149 743.533875,1202.313599 740.613953,1199.045044 &#10;&#9;C737.307373,1195.343750 732.977112,1195.164795 728.663757,1196.548950 &#10;&#9;C724.767212,1197.799316 722.724182,1200.662598 723.612549,1205.711060 &#10;z"/>
<path fill="#264236" opacity="1.000000" stroke="none" d="&#10;M1296.383545,1206.252441 &#10;&#9;C1292.926880,1205.389282 1289.640137,1205.093018 1286.894653,1203.716675 &#10;&#9;C1285.144775,1202.839722 1283.090454,1200.304443 1283.178833,1198.617798 &#10;&#9;C1283.281860,1196.652344 1285.165405,1193.875366 1286.990112,1193.072021 &#10;&#9;C1292.782593,1190.522339 1298.589478,1191.199463 1303.854492,1194.796875 &#10;&#9;C1303.893799,1195.367065 1303.933228,1195.937256 1303.972534,1196.507446 &#10;&#9;C1302.471313,1196.669067 1300.956909,1197.042603 1299.471680,1196.948975 &#10;&#9;C1296.247559,1196.745972 1293.043091,1196.190308 1289.818970,1196.051025 &#10;&#9;C1289.128418,1196.021118 1287.705322,1197.327881 1287.805298,1197.703857 &#10;&#9;C1288.051758,1198.631226 1288.832520,1199.817261 1289.673584,1200.110718 &#10;&#9;C1292.166138,1200.980713 1294.840576,1201.320923 1297.353271,1202.144653 &#10;&#9;C1300.606201,1203.211060 1304.494995,1203.849487 1304.597046,1208.446899 &#10;&#9;C1304.677734,1212.073853 1301.212891,1214.710938 1296.072998,1215.252930 &#10;&#9;C1290.124756,1215.880127 1286.694336,1214.852051 1282.817627,1209.913208 &#10;&#9;C1284.473877,1209.913208 1286.148315,1209.757202 1287.782349,1209.947510 &#10;&#9;C1290.672729,1210.284180 1293.532104,1211.088867 1296.418091,1211.163208 &#10;&#9;C1297.559814,1211.192627 1298.738281,1209.793823 1299.900146,1209.045410 &#10;&#9;C1298.860962,1208.150879 1297.821899,1207.256348 1296.383545,1206.252441 &#10;z"/>
<path fill="#264236" opacity="1.000000" stroke="none" d="&#10;M876.375366,1201.783691 &#10;&#9;C877.582031,1202.029297 878.440796,1202.074951 879.203735,1202.369141 &#10;&#9;C882.282959,1203.556885 886.021484,1204.405151 885.499451,1208.821655 &#10;&#9;C884.979980,1213.216309 881.570740,1214.755737 877.676331,1215.149048 &#10;&#9;C872.646057,1215.656982 867.714600,1215.459595 863.727356,1211.496826 &#10;&#9;C864.992126,1208.305908 866.643982,1208.621948 869.164246,1210.044556 &#10;&#9;C873.943665,1212.741821 878.200073,1212.048584 881.371155,1208.099609 &#10;&#9;C879.430420,1207.348755 877.712463,1206.561523 875.920227,1206.020142 &#10;&#9;C873.384277,1205.254150 870.505554,1205.156006 868.314209,1203.858765 &#10;&#9;C866.444153,1202.751831 864.087769,1200.262939 864.215027,1198.554321 &#10;&#9;C864.367371,1196.508179 866.536926,1193.705566 868.521240,1192.874756 &#10;&#9;C874.177979,1190.506226 879.824280,1191.375977 884.903625,1194.787354 &#10;&#9;C884.959412,1195.378906 885.015198,1195.970337 885.070923,1196.561890 &#10;&#9;C883.510864,1196.694702 881.928772,1197.057129 880.395508,1196.910156 &#10;&#9;C877.646240,1196.646606 874.931152,1195.810791 872.191772,1195.760620 &#10;&#9;C871.026978,1195.739258 869.836975,1197.094482 868.658447,1197.824097 &#10;&#9;C869.804688,1198.817383 870.832703,1200.026855 872.133057,1200.738403 &#10;&#9;C873.255615,1201.352417 874.687988,1201.400024 876.375366,1201.783691 &#10;z"/>
<path fill="#264236" opacity="1.000000" stroke="none" d="&#10;M1126.928955,1209.931152 &#10;&#9;C1126.925903,1207.297729 1126.956055,1205.133789 1126.913330,1202.971069 &#10;&#9;C1126.828003,1198.649414 1124.852539,1196.054077 1120.296265,1195.946533 &#10;&#9;C1116.214355,1195.850098 1112.701782,1198.631958 1112.406250,1202.662720 &#10;&#9;C1112.116089,1206.622192 1112.343018,1210.619507 1112.343018,1214.811401 &#10;&#9;C1110.753174,1214.811401 1109.480591,1214.811401 1108.020630,1214.811401 &#10;&#9;C1108.020630,1207.254639 1108.020630,1199.841675 1108.020630,1191.357910 &#10;&#9;C1110.162231,1192.342529 1111.787598,1193.089844 1113.771484,1194.001953 &#10;&#9;C1115.493896,1193.420044 1117.905029,1192.145874 1120.433350,1191.840698 &#10;&#9;C1126.994141,1191.048706 1130.976074,1194.464355 1131.336060,1201.068604 &#10;&#9;C1131.579224,1205.530273 1131.382324,1210.015869 1131.382324,1214.760498 &#10;&#9;C1129.896362,1214.851196 1128.655029,1214.927002 1127.131226,1215.020020 &#10;&#9;C1127.057251,1213.329468 1126.993164,1211.865234 1126.928955,1209.931152 &#10;z"/>
<path fill="#264236" opacity="1.000000" stroke="none" d="&#10;M1566.706665,1225.037720 &#10;&#9;C1565.660156,1225.010620 1565.008667,1224.977539 1564.412109,1224.947144 &#10;&#9;C1564.260254,1224.546631 1563.994263,1224.139282 1564.082642,1224.036499 &#10;&#9;C1569.094727,1218.208374 1567.265381,1212.815796 1563.544067,1207.104004 &#10;&#9;C1560.579834,1202.554199 1558.376465,1197.508789 1555.778076,1192.574585 &#10;&#9;C1559.296753,1191.162598 1561.148926,1192.267700 1562.560791,1195.393066 &#10;&#9;C1564.945435,1200.672363 1567.703735,1205.783081 1570.680420,1211.712646 &#10;&#9;C1573.346313,1205.996460 1575.940796,1200.910889 1578.091797,1195.644165 &#10;&#9;C1579.408691,1192.419800 1581.263550,1191.215332 1585.042603,1192.456177 &#10;&#9;C1579.508911,1203.187988 1574.008667,1213.873657 1568.455200,1224.531616 &#10;&#9;C1568.290649,1224.847656 1567.565430,1224.871582 1566.706665,1225.037720 &#10;z"/>
<path fill="#264236" opacity="1.000000" stroke="none" d="&#10;M427.955566,1215.029541 &#10;&#9;C424.151398,1215.029541 420.828217,1215.029541 417.190125,1215.029541 &#10;&#9;C417.190125,1213.541382 417.190125,1212.150513 417.190125,1210.477173 &#10;&#9;C419.365112,1210.352173 421.459808,1210.231812 423.749084,1210.100342 &#10;&#9;C423.749084,1203.217773 423.749084,1196.447388 423.749084,1189.292114 &#10;&#9;C421.632843,1189.160522 419.552032,1189.031128 417.171204,1188.883057 &#10;&#9;C417.171204,1187.517700 417.171204,1186.131836 417.171204,1184.536743 &#10;&#9;C423.259399,1184.536743 429.179688,1184.536743 435.569000,1184.536743 &#10;&#9;C435.690247,1185.904297 435.808350,1187.236572 435.966888,1189.024902 &#10;&#9;C433.467896,1189.024902 431.372345,1189.024902 429.061523,1189.024902 &#10;&#9;C429.061523,1196.180908 429.061523,1202.919922 429.061523,1209.640869 &#10;&#9;C435.714935,1210.936157 435.714935,1210.936157 435.795776,1215.029541 &#10;&#9;C433.339752,1215.029541 430.888153,1215.029541 427.955566,1215.029541 &#10;z"/>
<path fill="#264236" opacity="1.000000" stroke="none" d="&#10;M846.107178,1212.858887 &#10;&#9;C844.493103,1213.172485 843.194519,1213.915649 841.817932,1214.462646 &#10;&#9;C834.254761,1217.469116 827.874451,1213.708252 827.204956,1205.605347 &#10;&#9;C826.851929,1201.332642 827.142578,1197.006836 827.142578,1192.362915 &#10;&#9;C828.660400,1192.362915 830.005432,1192.362915 831.946594,1192.362915 &#10;&#9;C831.946594,1196.478271 831.832153,1200.438721 831.978271,1204.389404 &#10;&#9;C832.129395,1208.475952 834.256653,1210.958862 838.506165,1210.949341 &#10;&#9;C842.627014,1210.940186 845.755554,1209.023560 846.218994,1204.754272 &#10;&#9;C846.661621,1200.677002 846.314514,1196.514038 846.314514,1192.235352 &#10;&#9;C848.224426,1192.235352 849.465942,1192.235352 850.875732,1192.235352 &#10;&#9;C850.875732,1199.877319 850.875732,1207.298340 850.875732,1216.008911 &#10;&#9;C848.909119,1214.777466 847.647888,1213.987549 846.107178,1212.858887 &#10;z"/>
<path fill="#264236" opacity="1.000000" stroke="none" d="&#10;M1523.679443,1208.222290 &#10;&#9;C1521.871094,1200.918945 1523.301270,1196.728882 1528.365723,1193.654175 &#10;&#9;C1533.889648,1190.300537 1541.958130,1191.238159 1547.396729,1195.979004 &#10;&#9;C1546.662720,1198.577271 1545.822266,1199.764282 1542.687378,1197.949463 &#10;&#9;C1540.393188,1196.621216 1537.370483,1196.059082 1534.667236,1196.043335 &#10;&#9;C1530.439575,1196.018555 1527.336060,1199.394165 1527.220703,1203.270386 &#10;&#9;C1527.107544,1207.076660 1530.099365,1210.842651 1534.267090,1210.908447 &#10;&#9;C1537.940430,1210.966309 1541.632324,1209.853271 1545.993286,1209.147827 &#10;&#9;C1546.151123,1209.381470 1546.842163,1210.404053 1547.532471,1211.425903 &#10;&#9;C1538.226929,1217.795654 1529.346558,1216.644165 1523.679443,1208.222290 &#10;z"/>
<path fill="#264236" opacity="1.000000" stroke="none" d="&#10;M532.039795,1189.026855 &#10;&#9;C529.769592,1189.027466 527.961487,1189.027466 526.043579,1189.027466 &#10;&#9;C525.066101,1185.859619 525.363464,1184.181274 529.164978,1184.281006 &#10;&#9;C536.613708,1184.476196 544.071228,1184.338379 551.799927,1184.338379 &#10;&#9;C551.799927,1186.021118 551.799927,1187.425415 551.799927,1189.006470 &#10;&#9;C548.309570,1189.006470 545.008362,1189.006470 541.277100,1189.006470 &#10;&#9;C541.277100,1197.556519 541.277100,1205.951416 541.277100,1214.721558 &#10;&#9;C539.503723,1214.842529 538.131165,1214.936157 536.171448,1215.069824 &#10;&#9;C536.171448,1207.301758 536.026001,1199.863770 536.242188,1192.436401 &#10;&#9;C536.330078,1189.415039 535.125366,1188.654663 532.039795,1189.026855 &#10;z"/>
<path fill="#264236" opacity="1.000000" stroke="none" d="&#10;M761.917236,1204.042725 &#10;&#9;C761.916809,1201.407227 761.916809,1199.260742 761.916809,1197.479614 &#10;&#9;C759.898376,1195.153564 753.885620,1199.008057 755.465637,1192.280151 &#10;&#9;C757.381409,1192.133911 759.326599,1191.985474 761.638123,1191.808960 &#10;&#9;C761.802917,1189.792480 761.972595,1187.715698 762.161804,1185.400391 &#10;&#9;C763.523682,1185.400391 764.750793,1185.400391 766.174072,1185.400391 &#10;&#9;C766.327026,1187.518311 766.468933,1189.483643 766.634949,1191.783203 &#10;&#9;C768.943054,1191.783203 771.210083,1191.783203 773.856323,1191.783203 &#10;&#9;C773.856323,1193.459717 773.856323,1194.800537 773.856323,1196.284424 &#10;&#9;C771.431091,1196.464844 769.179016,1196.632446 766.552856,1196.827881 &#10;&#9;C766.552856,1202.874756 766.552856,1208.635742 766.552856,1214.690674 &#10;&#9;C764.945007,1214.843628 763.706177,1214.961426 761.917725,1215.131470 &#10;&#9;C761.917725,1211.433594 761.917725,1207.982666 761.917236,1204.042725 &#10;z"/>
<path fill="#264236" opacity="1.000000" stroke="none" d="&#10;M1250.420898,1188.458740 &#10;&#9;C1250.452026,1194.980103 1255.338623,1190.475708 1257.968750,1192.916138 &#10;&#9;C1257.993652,1193.411133 1258.060425,1194.743286 1258.136353,1196.256714 &#10;&#9;C1255.480713,1196.450806 1253.228027,1196.615601 1250.583374,1196.808960 &#10;&#9;C1250.583374,1202.828247 1250.583374,1208.591797 1250.583374,1214.674194 &#10;&#9;C1248.968140,1214.841309 1247.729492,1214.969360 1246.037354,1215.144409 &#10;&#9;C1246.037354,1208.980835 1246.037354,1203.049683 1246.037354,1197.642944 &#10;&#9;C1243.892822,1195.159668 1237.847290,1199.006470 1239.482910,1192.273193 &#10;&#9;C1241.398438,1192.128174 1243.344238,1191.980835 1245.631958,1191.807617 &#10;&#9;C1245.803711,1189.774902 1245.979248,1187.696899 1246.154785,1185.618774 &#10;&#9;C1246.553589,1185.269043 1246.952393,1184.919312 1247.351196,1184.569580 &#10;&#9;C1248.374146,1185.718750 1249.396973,1186.867798 1250.420898,1188.458740 &#10;z"/>
<path fill="#264236" opacity="1.000000" stroke="none" d="&#10;M908.392029,1196.506714 &#10;&#9;C905.510803,1196.258667 904.185425,1197.044434 904.388672,1199.804077 &#10;&#9;C904.571533,1202.286865 904.426147,1204.793579 904.425903,1207.289795 &#10;&#9;C904.425659,1209.609131 904.425781,1211.928589 904.425781,1214.690063 &#10;&#9;C902.923340,1214.786621 901.605530,1214.871338 899.958374,1214.977173 &#10;&#9;C899.958374,1208.797852 899.958374,1203.008789 899.958374,1196.925659 &#10;&#9;C897.644409,1196.651123 895.582886,1196.406616 893.490540,1196.158447 &#10;&#9;C891.916443,1189.816040 897.054260,1192.906616 899.666382,1191.481812 &#10;&#9;C899.791199,1189.854370 899.949646,1187.788818 900.129761,1185.440674 &#10;&#9;C901.460754,1185.440674 902.689453,1185.440674 904.165649,1185.440674 &#10;&#9;C904.315979,1187.432739 904.464111,1189.395996 904.640503,1191.733154 &#10;&#9;C906.902710,1191.733154 909.151428,1191.733154 911.548035,1191.733154 &#10;&#9;C912.732849,1194.850098 912.808472,1196.857788 908.392029,1196.506714 &#10;z"/>
<path fill="#264236" opacity="1.000000" stroke="none" d="&#10;M1045.314575,1213.337158 &#10;&#9;C1043.993530,1214.285645 1042.689453,1214.800293 1040.990967,1215.470703 &#10;&#9;C1040.990967,1207.238770 1040.990967,1199.838623 1040.990967,1191.124634 &#10;&#9;C1043.246826,1192.454590 1044.824341,1193.384644 1046.134521,1194.157104 &#10;&#9;C1049.698486,1193.237183 1053.616577,1192.225708 1058.339111,1191.006714 &#10;&#9;C1058.048706,1193.856445 1057.904297,1195.273071 1057.739136,1196.893433 &#10;&#9;C1056.653320,1196.841919 1055.849487,1196.845337 1055.055542,1196.759521 &#10;&#9;C1048.691284,1196.071655 1045.567993,1198.671143 1045.355103,1204.948853 &#10;&#9;C1045.265381,1207.597534 1045.334595,1210.251709 1045.314575,1213.337158 &#10;z"/>
<path fill="#264236" opacity="1.000000" stroke="none" d="&#10;M801.021729,1220.176758 &#10;&#9;C806.315308,1218.802979 807.990601,1215.223877 807.974915,1210.399536 &#10;&#9;C807.955505,1204.439941 807.970215,1198.480225 807.970215,1192.476562 &#10;&#9;C811.315186,1191.387451 812.857788,1191.998047 812.686707,1195.634399 &#10;&#9;C812.390320,1201.932373 812.550781,1208.254272 812.165466,1214.544556 &#10;&#9;C811.910339,1218.709351 809.399658,1221.538086 805.477234,1223.026978 &#10;&#9;C802.948975,1223.986694 801.288513,1223.349609 801.021729,1220.176758 &#10;z"/>
<path fill="#264236" opacity="1.000000" stroke="none" d="&#10;M1397.012695,1207.910034 &#10;&#9;C1397.012695,1210.383179 1397.012695,1212.369141 1397.012695,1214.691406 &#10;&#9;C1395.468750,1214.691406 1394.125732,1214.691406 1392.566406,1214.691406 &#10;&#9;C1392.566406,1204.244507 1392.566406,1193.945923 1392.566406,1183.128052 &#10;&#9;C1393.793701,1182.999023 1395.146484,1182.856934 1397.012817,1182.660767 &#10;&#9;C1397.012817,1191.197632 1397.012817,1199.310181 1397.012695,1207.910034 &#10;z"/>
<path fill="#264236" opacity="1.000000" stroke="none" d="&#10;M1227.464722,1199.185303 &#10;&#9;C1227.465454,1204.621948 1227.465454,1209.584839 1227.465454,1214.790649 &#10;&#9;C1225.877686,1214.863647 1224.632568,1214.921021 1223.155396,1214.988892 &#10;&#9;C1223.155396,1207.337402 1223.155396,1199.921021 1223.155396,1192.260498 &#10;&#9;C1224.496094,1192.260498 1225.738403,1192.260498 1227.463989,1192.260498 &#10;&#9;C1227.463989,1194.455811 1227.463989,1196.583618 1227.464722,1199.185303 &#10;z"/>
<path fill="#264236" opacity="1.000000" stroke="none" d="&#10;M399.954102,1192.360352 &#10;&#9;C400.245819,1186.005615 404.615479,1182.095337 409.055084,1184.476318 &#10;&#9;C405.443573,1186.860596 403.032928,1189.487427 408.048706,1192.730957 &#10;&#9;C408.467133,1193.001587 408.471191,1194.937134 408.013672,1195.322388 &#10;&#9;C407.101044,1196.090820 405.365845,1197.018921 404.628174,1196.630981 &#10;&#9;C402.884918,1195.713867 401.526794,1194.064819 399.954102,1192.360352 &#10;z"/>
<path fill="#264236" opacity="1.000000" stroke="none" d="&#10;M1593.416992,1183.229980 &#10;&#9;C1596.843994,1181.671875 1599.395630,1182.700439 1600.759277,1185.547852 &#10;&#9;C1602.583252,1189.356812 1600.475952,1192.289185 1597.519287,1194.451294 &#10;&#9;C1596.266235,1195.367432 1594.435791,1195.494019 1592.395996,1195.258545 &#10;&#9;C1595.635620,1192.209595 1598.152710,1189.831055 1593.154785,1186.612549 &#10;&#9;C1592.664551,1186.296753 1593.113281,1184.522827 1593.416992,1183.229980 &#10;z"/>
<path fill="#264236" opacity="1.000000" stroke="none" d="&#10;M1612.773926,1188.756470 &#10;&#9;C1609.908447,1194.934570 1606.991211,1196.788940 1603.666260,1194.615234 &#10;&#9;C1604.400757,1193.918457 1605.113770,1193.281616 1605.779907,1192.599121 &#10;&#9;C1606.445923,1191.916748 1607.065063,1191.188721 1607.760742,1190.418945 &#10;&#9;C1607.295044,1189.670654 1606.943848,1189.120483 1606.606934,1188.561768 &#10;&#9;C1605.743286,1187.129761 1604.768066,1185.740479 1604.165161,1184.205444 &#10;&#9;C1604.082764,1183.995850 1606.048218,1182.388184 1606.757935,1182.578003 &#10;&#9;C1608.541626,1183.055298 1610.324585,1183.977173 1611.755615,1185.150391 &#10;&#9;C1612.496948,1185.758179 1612.489624,1187.279053 1612.773926,1188.756470 &#10;z"/>
<path fill="#264236" opacity="1.000000" stroke="none" d="&#10;M395.477448,1186.419556 &#10;&#9;C392.909943,1188.377075 393.487274,1189.665283 395.403809,1191.386719 &#10;&#9;C396.349121,1192.235840 396.353882,1194.131836 396.784180,1195.554199 &#10;&#9;C395.101624,1195.774170 392.575226,1196.778076 391.905334,1196.057129 &#10;&#9;C390.319458,1194.350464 388.206329,1191.173584 388.855316,1189.768188 &#10;&#9;C390.111694,1187.047607 392.782532,1184.256592 395.525665,1183.192871 &#10;&#9;C397.449799,1182.446777 397.687225,1184.841309 395.477448,1186.419556 &#10;z"/>
<path fill="#264236" opacity="1.000000" stroke="none" d="&#10;M1183.918701,1223.091553 &#10;&#9;C1183.335205,1222.178345 1182.635498,1220.841675 1183.030518,1220.292480 &#10;&#9;C1183.835571,1219.173462 1185.230957,1218.479126 1186.549805,1217.484009 &#10;&#9;C1185.121582,1215.946533 1184.159790,1215.237183 1183.656006,1214.285400 &#10;&#9;C1183.043091,1213.127930 1182.816040,1211.766235 1182.422119,1210.492798 &#10;&#9;C1183.910522,1210.072754 1185.505981,1209.088135 1186.866089,1209.345703 &#10;&#9;C1190.067871,1209.952026 1191.994995,1214.362549 1190.133911,1217.248657 &#10;&#9;C1188.685669,1219.494385 1186.278687,1221.122192 1183.918701,1223.091553 &#10;z"/>
<path fill="#264236" opacity="1.000000" stroke="none" d="&#10;M1272.566162,1189.750000 &#10;&#9;C1271.614258,1192.305298 1270.821533,1194.499634 1270.028931,1196.693970 &#10;&#9;C1269.478638,1196.519897 1268.928467,1196.345947 1268.378296,1196.171875 &#10;&#9;C1268.378296,1192.508057 1268.378296,1188.844116 1268.378296,1184.707642 &#10;&#9;C1270.279175,1184.564087 1271.823853,1184.447388 1273.919189,1184.289185 &#10;&#9;C1273.443115,1186.323364 1273.084229,1187.856201 1272.566162,1189.750000 &#10;z"/>
<path fill="#264236" opacity="1.000000" stroke="none" d="&#10;M810.043213,1181.397461 &#10;&#9;C811.319275,1182.458862 812.478821,1183.437866 813.062622,1184.686157 &#10;&#9;C813.231384,1185.046875 811.847107,1186.645142 810.991150,1186.831299 &#10;&#9;C810.123718,1187.020020 808.136597,1185.982666 808.174988,1185.793457 &#10;&#9;C808.479065,1184.292847 809.149475,1182.866699 810.043213,1181.397461 &#10;z"/>
<path fill="#264236" opacity="1.000000" stroke="none" d="&#10;M1228.035156,1184.216553 &#10;&#9;C1227.260864,1187.428101 1225.285156,1187.782959 1223.292969,1186.264038 &#10;&#9;C1222.619507,1185.750610 1223.100220,1183.723389 1223.053467,1182.388062 &#10;&#9;C1224.707764,1182.871460 1226.361938,1183.354858 1228.035156,1184.216553 &#10;z"/>
<path fill="#6C3C40" opacity="1.000000" stroke="none" d="&#10;M1361.137085,982.523682 &#10;&#9;C1361.669800,980.553284 1362.415161,978.331604 1363.504883,976.023804 &#10;&#9;C1363.015991,978.049194 1362.182861,980.160767 1361.137085,982.523682 &#10;z"/>
<path fill="#6C3C40" opacity="1.000000" stroke="none" d="&#10;M1652.059082,896.309692 &#10;&#9;C1652.736206,897.333862 1653.409424,898.698425 1654.083252,900.442932 &#10;&#9;C1653.407715,899.431946 1652.731445,898.041077 1652.059082,896.309692 &#10;z"/>
<path fill="#6C3C40" opacity="1.000000" stroke="none" d="&#10;M1366.156250,970.623108 &#10;&#9;C1366.411499,969.360962 1366.885132,967.848328 1367.668579,966.169312 &#10;&#9;C1367.443848,967.459473 1366.909302,968.916077 1366.156250,970.623108 &#10;z"/>
<path fill="#6C3C40" opacity="1.000000" stroke="none" d="&#10;M1364.099609,975.504517 &#10;&#9;C1364.394409,974.300964 1364.892456,972.844666 1365.650879,971.182007 &#10;&#9;C1365.375122,972.401001 1364.838989,973.826355 1364.099609,975.504517 &#10;z"/>
<path fill="#6C3C40" opacity="1.000000" stroke="none" d="&#10;M1365.925293,959.736938 &#10;&#9;C1365.604858,959.557495 1365.295776,959.087646 1364.989746,958.323730 &#10;&#9;C1365.307495,958.501892 1365.621948,958.974182 1365.925293,959.736938 &#10;z"/>
<path fill="#6C3C40" opacity="1.000000" stroke="none" d="&#10;M1651.499512,895.125854 &#10;&#9;C1651.699585,895.073120 1651.864868,895.267334 1652.005981,895.704407 &#10;&#9;C1651.802490,895.765137 1651.630127,895.573608 1651.499512,895.125854 &#10;z"/>
<path fill="#6C3C40" opacity="1.000000" stroke="none" d="&#10;M1654.105469,901.254700 &#10;&#9;C1654.349365,901.256104 1654.581177,901.553711 1654.818359,902.140503 &#10;&#9;C1654.580200,902.136719 1654.336792,901.843811 1654.105469,901.254700 &#10;z"/>
<path fill="#6C3C40" opacity="1.000000" stroke="none" d="&#10;M871.429199,895.135254 &#10;&#9;C871.648376,895.062134 871.831421,895.256836 871.981689,895.718689 &#10;&#9;C871.768555,895.787659 871.583252,895.593445 871.429199,895.135254 &#10;z"/>
<path fill="#FFFFFF" opacity="1.000000" stroke="none" d="&#10;M520.375793,855.624512 &#10;&#9;C520.195435,856.879272 519.717346,857.729858 519.239258,858.580383 &#10;&#9;C518.827393,858.272095 518.415466,857.963745 518.003601,857.655457 &#10;&#9;C518.336487,856.780029 518.669373,855.904663 519.192749,854.762329 &#10;&#9;C519.614807,854.737000 519.846375,854.978577 520.375793,855.624512 &#10;z"/>
<path fill="#6C3C40" opacity="1.000000" stroke="none" d="&#10;M989.917969,739.936096 &#10;&#9;C993.031738,736.790039 996.145447,733.644043 999.259216,730.497986 &#10;&#9;C999.740723,731.001404 1000.222290,731.504761 1000.703796,732.008179 &#10;&#9;C999.082764,736.489441 995.305298,738.652954 990.392212,740.013062 &#10;&#9;C989.990112,739.998291 989.917969,739.936096 989.917969,739.936096 &#10;z"/>
<path fill="#6C3C40" opacity="1.000000" stroke="none" d="&#10;M989.070068,741.053772 &#10;&#9;C988.594849,741.174316 988.119568,741.294861 987.644348,741.415405 &#10;&#9;C987.911377,741.265869 988.178406,741.116394 988.721680,740.978210 &#10;&#9;C988.997925,740.989563 989.070068,741.053772 989.070068,741.053772 &#10;z"/>
<path fill="#6C3C40" opacity="1.000000" stroke="none" d="&#10;M988.966187,740.953125 &#10;&#9;C989.057312,740.616028 989.247925,740.367310 989.712097,740.053345 &#10;&#9;C989.917969,739.936096 989.990112,739.998291 990.022156,740.034180 &#10;&#9;C989.928406,740.369141 989.737122,740.617798 989.275269,740.934937 &#10;&#9;C989.070068,741.053772 988.997925,740.989563 988.966187,740.953125 &#10;z"/>
<path fill="#FEFDFD" opacity="1.000000" stroke="none" d="&#10;M868.831665,888.714722 &#10;&#9;C869.832581,891.428467 868.693420,891.902710 866.421204,892.178711 &#10;&#9;C852.653320,893.851624 839.294678,897.101379 826.748230,903.208984 &#10;&#9;C805.204407,913.696655 791.115845,931.139648 781.271057,952.393555 &#10;&#9;C777.226501,961.125366 773.836060,970.158020 769.928467,978.956299 &#10;&#9;C768.183105,982.886353 766.257141,986.832886 763.775879,990.318115 &#10;&#9;C759.346313,996.540039 753.272034,1000.198608 745.349060,998.722473 &#10;&#9;C736.505798,997.074951 731.653870,991.406189 730.008423,982.570496 &#10;&#9;C727.169128,967.323792 730.789307,952.751587 734.606140,938.290466 &#10;&#9;C744.057129,902.482483 758.681458,868.609863 774.507446,835.275879 &#10;&#9;C786.549622,809.911926 799.408875,784.935852 811.963440,759.436768 &#10;&#9;C813.027466,760.699341 814.260132,762.214294 815.004578,763.939880 &#10;&#9;C832.904297,805.427490 850.751770,846.937622 868.831665,888.714722 &#10;z"/>
<path fill="#FEFDFD" opacity="1.000000" stroke="none" d="&#10;M1648.879150,888.699951 &#10;&#9;C1649.904663,891.458191 1648.701172,891.910095 1646.465942,892.181885 &#10;&#9;C1632.867310,893.835144 1619.659912,897.010803 1607.251953,903.003662 &#10;&#9;C1588.245850,912.183350 1574.402954,926.676575 1565.029053,945.327576 &#10;&#9;C1559.520020,956.288452 1555.195068,967.838745 1549.940063,978.935669 &#10;&#9;C1547.548950,983.985352 1544.782227,989.086304 1541.161377,993.279480 &#10;&#9;C1532.031982,1003.852234 1514.201904,998.708130 1510.908081,985.957153 &#10;&#9;C1507.893799,974.288818 1509.154297,962.872742 1511.588257,951.399170 &#10;&#9;C1519.575073,913.749573 1534.466553,878.554321 1550.610962,843.910889 &#10;&#9;C1563.800903,815.606995 1578.119629,787.829041 1591.984619,759.466370 &#10;&#9;C1592.988159,760.553589 1594.192139,761.885742 1594.865723,763.446594 &#10;&#9;C1612.835815,805.085693 1630.751221,846.748352 1648.879150,888.699951 &#10;z"/>
<path fill="#FEFDFD" opacity="1.000000" stroke="none" d="&#10;M1453.443359,1209.946777 &#10;&#9;C1450.069702,1207.704590 1448.292725,1205.052734 1449.719971,1201.301636 &#10;&#9;C1451.409790,1196.861084 1455.111206,1195.769409 1459.418579,1195.920898 &#10;&#9;C1463.267334,1196.056152 1466.181763,1197.640625 1467.460083,1201.453369 &#10;&#9;C1468.886719,1205.708740 1465.976318,1210.282837 1461.120972,1210.859741 &#10;&#9;C1458.746826,1211.141846 1456.249634,1210.390015 1453.443359,1209.946777 &#10;z"/>
<path fill="#FEFDFD" opacity="1.000000" stroke="none" d="&#10;M1150.847656,1209.333740 &#10;&#9;C1146.985840,1204.366333 1147.219604,1200.253174 1151.201294,1197.463623 &#10;&#9;C1155.244385,1194.631348 1162.106323,1195.584473 1164.755737,1199.346436 &#10;&#9;C1167.838501,1203.723755 1165.328125,1210.068115 1159.790039,1210.813843 &#10;&#9;C1157.016357,1211.187012 1154.039062,1210.047729 1150.847656,1209.333740 &#10;z"/>
<path fill="#FEFDFD" opacity="1.000000" stroke="none" d="&#10;M1019.000366,1196.586304 &#10;&#9;C1023.051208,1198.420654 1024.746338,1201.351807 1023.763428,1205.198975 &#10;&#9;C1022.736328,1209.219238 1019.582642,1210.929199 1015.532104,1211.095093 &#10;&#9;C1011.343323,1211.266602 1007.896606,1209.918213 1006.268738,1205.850220 &#10;&#9;C1004.536560,1201.521484 1007.682129,1196.803101 1012.733704,1196.108398 &#10;&#9;C1014.652710,1195.844482 1016.668579,1196.284180 1019.000366,1196.586304 &#10;z"/>
<path fill="#FEFDFD" opacity="1.000000" stroke="none" d="&#10;M506.566406,1203.061646 &#10;&#9;C503.883484,1203.062256 501.617554,1203.062256 498.787048,1203.062256 &#10;&#9;C500.783691,1198.546387 502.558136,1194.533203 504.660004,1189.779297 &#10;&#9;C506.767303,1194.310913 508.634155,1198.325317 510.717712,1202.805908 &#10;&#9;C509.123077,1202.914795 508.053223,1202.987915 506.566406,1203.061646 &#10;z"/>
<path fill="#FEFDFD" opacity="1.000000" stroke="none" d="&#10;M611.787109,1190.589355 &#10;&#9;C613.890747,1194.637329 615.709167,1198.475708 617.741333,1202.765137 &#10;&#9;C613.672852,1202.765137 610.144348,1202.765137 605.875061,1202.765137 &#10;&#9;C607.798950,1198.530273 609.650391,1194.454956 611.787109,1190.589355 &#10;z"/>
<path fill="#FEFDFD" opacity="1.000000" stroke="none" d="&#10;M1424.724609,1201.190186 &#10;&#9;C1420.832397,1201.191528 1417.395630,1201.191528 1413.529053,1201.191528 &#10;&#9;C1414.792236,1196.912720 1417.760864,1196.189941 1420.945923,1195.981201 &#10;&#9;C1424.858032,1195.724731 1428.502563,1196.230591 1431.013306,1201.188965 &#10;&#9;C1428.614258,1201.188965 1426.897095,1201.188965 1424.724609,1201.190186 &#10;z"/>
<path fill="#FEFDFD" opacity="1.000000" stroke="none" d="&#10;M1087.999756,1203.105713 &#10;&#9;C1088.112793,1211.304565 1077.749146,1212.760986 1073.192261,1209.549805 &#10;&#9;C1068.651978,1206.350098 1068.930298,1199.962769 1073.749023,1197.179321 &#10;&#9;C1079.449707,1193.886597 1085.755371,1196.336792 1087.999756,1203.105713 &#10;z"/>
<path fill="#FEFDFD" opacity="1.000000" stroke="none" d="&#10;M1353.798340,1201.554443 &#10;&#9;C1353.825928,1209.188477 1347.643799,1213.520264 1341.123779,1210.313110 &#10;&#9;C1338.881714,1209.210571 1336.559814,1206.129517 1336.317749,1203.744751 &#10;&#9;C1336.104858,1201.647705 1338.355835,1197.818848 1340.210938,1197.317871 &#10;&#9;C1343.537231,1196.419556 1347.426880,1197.196777 1350.985840,1197.818604 &#10;&#9;C1352.051880,1198.004883 1352.801392,1200.002563 1353.798340,1201.554443 &#10;z"/>
<path fill="#FEFDFD" opacity="1.000000" stroke="none" d="&#10;M945.830078,1206.906250 &#10;&#9;C944.003296,1202.306274 945.278320,1199.099731 949.218994,1196.988281 &#10;&#9;C953.027588,1194.947632 958.629822,1195.766357 961.169250,1198.733521 &#10;&#9;C963.637878,1201.617920 963.740479,1204.767212 961.568970,1207.840088 &#10;&#9;C959.320679,1211.021729 953.796570,1212.219849 949.807556,1210.305908 &#10;&#9;C948.383240,1209.622559 947.268555,1208.293823 945.830078,1206.906250 &#10;z"/>
<path fill="#FEFDFD" opacity="1.000000" stroke="none" d="&#10;M1493.717285,1210.773682 &#10;&#9;C1489.833862,1209.119751 1486.984985,1206.520874 1488.240479,1202.704590 &#10;&#9;C1489.075562,1200.165771 1491.698608,1197.423340 1494.188477,1196.409058 &#10;&#9;C1497.774658,1194.948120 1501.818481,1195.782837 1504.541626,1199.144653 &#10;&#9;C1508.023315,1203.442871 1505.323486,1209.808960 1499.545776,1210.882812 &#10;&#9;C1497.793335,1211.208618 1495.924072,1210.906616 1493.717285,1210.773682 &#10;z"/>
<path fill="#FEFDFD" opacity="1.000000" stroke="none" d="&#10;M723.484253,1205.348145 &#10;&#9;C722.724182,1200.662598 724.767212,1197.799316 728.663757,1196.548950 &#10;&#9;C732.977112,1195.164795 737.307373,1195.343750 740.613953,1199.045044 &#10;&#9;C743.533875,1202.313599 742.473877,1207.353149 738.546509,1209.759399 &#10;&#9;C733.459045,1212.876465 726.851501,1211.085327 723.484253,1205.348145 &#10;z"/>
</svg>